/* XPM */
static char *result[] = {
/* columns rows colors chars-per-pixel */
"48 48 239 2 ",
"   c #001D00",
".  c #022401",
"X  c #082901",
"o  c #043502",
"O  c #0D3605",
"+  c #053C01",
"@  c #0C3B05",
"#  c #0C3D0A",
"$  c #133909",
"%  c #183913",
"&  c #064402",
"*  c #0C4403",
"=  c #0E4A02",
"-  c #0F4409",
";  c #0F4B09",
":  c #134506",
">  c #134C04",
",  c #1A4A06",
"<  c #13440A",
"1  c #1B4609",
"2  c #144B0A",
"3  c #1C4C0C",
"4  c #0D5801",
"5  c #145305",
"6  c #195505",
"7  c #1B5B06",
"8  c #15520B",
"9  c #1C540C",
"0  c #15580A",
"q  c #1C5B0C",
"w  c #1D4513",
"e  c #164B10",
"r  c #1C4D12",
"t  c #1E4919",
"y  c #165413",
"u  c #1E5312",
"i  c #1D5A12",
"p  c #205F07",
"a  c #22550D",
"s  c #225D0D",
"d  c #214415",
"f  c #224C14",
"g  c #264D1B",
"h  c #225413",
"j  c #2A5413",
"k  c #235C13",
"l  c #2A5C15",
"z  c #25551A",
"x  c #2C541D",
"c  c #245C1B",
"v  c #2B5D1B",
"b  c #31571E",
"n  c #315C1A",
"m  c #1D630C",
"M  c #1E680F",
"N  c #1E6413",
"B  c #276507",
"V  c #24630D",
"C  c #2A660E",
"Z  c #266A0B",
"A  c #2B6D0D",
"S  c #32700E",
"D  c #246213",
"F  c #2B6414",
"G  c #256A13",
"H  c #2C6B14",
"J  c #26621B",
"K  c #2C651B",
"L  c #276F1B",
"P  c #2D6B1B",
"I  c #326317",
"U  c #316C15",
"Y  c #31641B",
"T  c #336C1C",
"R  c #396E1E",
"E  c #2E7114",
"W  c #2C721B",
"Q  c #2F7A1D",
"!  c #327315",
"~  c #387310",
"^  c #357917",
"/  c #34731C",
"(  c #39741C",
")  c #367A1B",
"_  c #3B7B1C",
"`  c #2A5625",
"'  c #2C5D24",
"]  c #325624",
"[  c #365C29",
"{  c #276321",
"}  c #2C6422",
"|  c #2E6B23",
" . c #346424",
".. c #346C23",
"X. c #396D24",
"o. c #336529",
"O. c #3A622B",
"+. c #356D2B",
"@. c #3B6C2A",
"#. c #2E7622",
"$. c #347223",
"%. c #3A7424",
"&. c #357C20",
"*. c #3C7B24",
"=. c #357329",
"-. c #3C742A",
";. c #34792A",
":. c #3D7A2A",
">. c #3D6733",
",. c #3D7432",
"<. c #3C7B33",
"1. c #3E7C38",
"2. c #407B1D",
"3. c #416C2D",
"4. c #417C25",
"5. c #42752B",
"6. c #46752A",
"7. c #427C2B",
"8. c #497E2D",
"9. c #446C32",
"0. c #486E31",
"q. c #437D33",
"w. c #497836",
"e. c #4A7D34",
"r. c #557A3E",
"t. c #3C8217",
"y. c #3B831D",
"u. c #3D8224",
"i. c #3B8624",
"p. c #3C842A",
"a. c #3F8A35",
"s. c #42831F",
"d. c #44871C",
"f. c #438324",
"g. c #498626",
"h. c #448A25",
"j. c #4A8A26",
"k. c #44832B",
"l. c #49852C",
"z. c #46892C",
"x. c #4A8C2D",
"c. c #518C2C",
"v. c #489429",
"b. c #4C922C",
"n. c #52942D",
"m. c #549D2A",
"M. c #468332",
"N. c #4B8433",
"B. c #448934",
"V. c #4C8B33",
"C. c #4C843B",
"Z. c #45893C",
"A. c #4D8B3B",
"S. c #528C34",
"D. c #52843B",
"F. c #57883A",
"G. c #538D3B",
"H. c #4C9233",
"J. c #4E9638",
"K. c #549334",
"L. c #599635",
"P. c #549A35",
"I. c #5A9B34",
"U. c #54933B",
"Y. c #59943C",
"T. c #559B3B",
"R. c #5B9A3D",
"E. c #629B3C",
"W. c #58A337",
"Q. c #5BA23C",
"!. c #63A23C",
"~. c #4D8547",
"^. c #4E8C41",
"/. c #538C42",
"(. c #588946",
"). c #569242",
"_. c #5A9543",
"`. c #5C9B43",
"'. c #559549",
"]. c #5D9B48",
"[. c #588B51",
"{. c #619B44",
"}. c #61954C",
"|. c #66984B",
" X c #629D4B",
".X c #6A9650",
"XX c #629D53",
"oX c #649955",
"OX c #5DA242",
"+X c #58A350",
"@X c #64A343",
"#X c #69A545",
"$X c #65A944",
"%X c #6AAA46",
"&X c #65A34B",
"*X c #69A44B",
"=X c #65A94E",
"-X c #6CAB4B",
";X c #71A84D",
":X c #67B14B",
">X c #6FB14A",
",X c #73B44F",
"<X c #75B94D",
"1X c #65A352",
"2X c #6BA553",
"3X c #6CAB53",
"4X c #6DA45A",
"5X c #6AAA59",
"6X c #71AD55",
"7X c #73A35C",
"8X c #73AD5A",
"9X c #7BAC5A",
"0X c #6FB350",
"qX c #74B452",
"wX c #79B452",
"eX c #79BD54",
"rX c #76B45C",
"tX c #7AB45C",
"yX c #7ABA5C",
"uX c #74A762",
"iX c #75AF69",
"pX c #75B363",
"aX c #7BB563",
"sX c #7CBA62",
"dX c #7EB86E",
"fX c #81BA5A",
"gX c #80BE60",
"hX c #83BC6A",
"jX c #82C35B",
"kX c #87C569",
"lX c #93CE69",
"zX c #89C376",
"xX c #8BC376",
"cX c #8DC872",
"vX c #94CF74",
"bX c #97D277",
"nX c #A4DF7B",
"mX c #A2DB86",
"MX c #A8E28C",
/* pixels */
"K * I %.:.V.u.*./ G S.S.T D *.l.S.( U.f.b.V.> 9 2 r ..%.6.|.fXY.c.2XT k.Y.V.7.q e J ( k.l $.$Xi.",
", 7.4.U 4.%.H P D -.K T s : P A.&XV.q E u.( %.2 < oXhX> k.nX!.s S |.kXrXU.q.5 { ,.| R f.9 *.L.Z ",
"9 *XN.R I T F : < -.a 9 l s %.F A.A.m Z E f.pXN.-.hXmX#X!.{.#Xc.~ fXMX7Xz $ ` ' 2 v U.K./ z.L.J.",
"6.6.F l I ).D. .@.Y > s aXzXY.= L k.B.D s l.{.K.T rX@XfX;XT Y R F.7X0.9.%   t [ O.5.U.H.`.f.x.Q.",
"j : h @ F /.5.S.R.S.D %.zXvXV.5 P *.N.6 5 k *.&XB U 2.@XY @ v Y  .d . % $   O b }.T i.J.B.P V.Y.",
"g w Y ..G.a v 4.@X1Xq.-.A.`.U.].*.q > > , > ;.].F & K i f 1 e..X.X0.3 1 j r..X_.G.H M ;.1.- T Y.",
"[.w ..K.`.q : F Y.:.....%.Z z.Y.L 6 L c 8 & ;.#.8 i c e o.:._.cXmX2X|._.6.3..XN.7 i.m M )./...%.",
"_.h 7.g.f.G q q N.P ~.K *.u.( H %.-.q.k k L a.G 8 =.q.} J 5X6Xx.gXxX_.X.6.o q.<.N v.m.y.OXsX .* ",
"{.j 4.~ y.) D D M.J u * 7._ S G :.} < 2 G #.i.W & K 7.9 k 5X&X7 ].dX>.2 t o <.=.W y.W.t._ l.G./.",
"E.$ v C z.*.k H H K u h %.V ^ _ 4.r { 2 L +X;.i  X).k o - k.L./ hXoX< c # e p.OXj.y.W.j.W M.lXkX",
"8.9 7.x.H.G.Y %.M.%.3 v %.C u.x.*.M.$.0 =.^.<.D kXnX4.@ 2 *Xl.Y w.^.( 4.=.q.:.H.h.P.jX!.5 4.eXK.",
"..< k.Q.V.v @ q.sX{.l , %.Y.qX$Xv.OXp.D &.M W l.wXfXf.F $.qX@Xk ` q.4.u.%.D $.V.Z Q.>Xu.P g.K.( ",
"@.9 H.W._ v @ =.kX*XF a _ Y.@XT.`.=Xb.Z E y.b.L.S.2.B U K.wXl.J oX,.q.4.q 9 V.*._ K.^ *._.G.U ..",
"6.F.OXW.n.e.w A.%X*.7.Y.s.qX$.k.U.=.$.;.M.z.n.I.s + 9 2.E.%X-.N.2X4.%.i 2 D `.j.u.k 6 k.3X*Xh O ",
"D.6.K.$X`.q.t _.h.q k.K.-X-X8 6.v K *.rX8XB.z.L.Y.q.M.k.E.j., x.vX-X! > T *.n.h.N ' + $.R.E.r . ",
"w.3 S.x.A.i o.:.g.K.U.{.!.( =.c < 0 z.Q.$XF V $XvXzX XV.;X8.J ].R.k.U f.qXjXi.D <.{ } | {.@Xv - ",
"x x e.F =.i C.7.U.&X_.wXT.)./.h < J j.m.j.> 5 @XqX X..J  .' - ;.p.P H n.<X,X! i `.&X).A.=XN.k :.",
"1 [ x h =.^.}.K F 9XY.S.@X*X..K C.7.g.%X@Xy J Y.h.4././.l o.u =.#.F q u.OXOXB.L V.-XdX).V T `.yX",
"6.g d [ :._.].6.G.9XF s ( V.D }.pX:.( _.:.k /.).S.S.2X}.9.X.%.4.q / W 1X/.L i q *.I.Q.G u.#X>XOX",
"w.d d ` 3._.K.Y.`._.*.p > V N./.e.7.$.:...N.N. XY.U.2XK 1 z Y k.) U.kXXX<.1.} ;.&.u.h.A L.b.z.eX",
"j [ ] g T 6XyXh.) T.4.( U / S.{.k.G.-.i :.).7./._.3X Xw.J @.D 4.k./ '.c J iX+XA.P ) f.! ! Z H.W.",
"x w.3.[ T kX%X^ _ V.6 R N.-.-.k.Y.XX%.> ..G.*.* T V.2X{.N.*X_.-.e.c 9 6 A.=XH.N._ _ *.M.= 5 &.G ",
"8.> 7 7.*.N.*.p.G H g.S.Y k %.k.S.( Y.u.d.OX6 9 2 @ ..q.2.F.|.6XN.rXV.W H.k.G.F ; =.%.f.&.D OXv.",
"s s X.U 7.k.U *.$...T 7...6 T G.G.V.V u.u._ P c : } 7Xk I bXfXk.V K.@X3X`.).D k { } U ( K s $X^ ",
"3 F.N.( R / I > , e.K s 6 : P / B.`.F Z &.E *XR ..).mX*Xc.wXL.c.B E.vXhX0.x w o.> c %.Y.R *.K.x.",
"I N.6.U F X.C.l  .r k 3 XX*X Xq m V.$.m C *. X`.6.8XqX;XgX4.8.e.2.9X7X(.] . d 9.[  .T.z.5Xx._ qX",
"@.3 a , : (.D.7.Y.l.k 5 pXcX3Xq J %.5XF > T H &XC _ 4.#X{., n j e.O.O d %   X j 3.5.) H.p.%.x.T.",
"< $ O.3 l.Y K 4.Y.-X_.=. X6X`.:.N.m k > > 6 D 1X*.5 s 7.2 @  .S.0.w.1 $ g x 0.e.7Xf.N B.;.i I R.",
"[.w  .%.*XI 5 l H.U...k *.7 k.`.$.q q D u & L ^.N 2 } < c +./.aXbX7XF.F.5.0..X|.i i.4 W ;.-.k q.",
"7Xh %.l.K.H i ; A.V /.q.-.g.u.( p.D N.J i i #.W y } :.+.c :.*XR.aXbX_.%.F.* Y  Xq H.v.^ A.kX Xu ",
";Xn e._ h.u.F > A.J c > T V.V ! i C.c > s G Q &.& q C.0 u 1XMXq N.xXdX2 +.+ } Z.0 y.v.t.S K.F | ",
"fX, h Z b.p.q F ( k v : %.( y.( S.3 u 2 i a.a.N q.7.P 5 - T qXH XXuXe u $ o L ].z.^ W.n.*.4.yXcX",
";X1 6.4.i.Y.7.D 4.T v , e.> S y.f.:.<.k | '.'.= 3XbXc.: o l.U.s _.4XD Y.9 w.:.z.J.d.<X,X6 F qX-X",
"4.: R OXOX7.r  .&X&Xa a ( 4.OX-Xx.H.k.0 &.L W 7.@XlXK.X.K @X6X%.< ,.H ( k.L $.A.! b.eXn.u./ %X^ ",
"e.h / P.x.I O K pX&Xk.: %.g.R.OXT.Q.OXE ) M h.n.L.n.~ C ~ #XqX> [.~.5.*.T 5 P R.m K.b.E `.N.2./ ",
"%.7.J.Q.P.D.x { 6XT.-.S.f.T.`.T  Xa.&./ *.k.h.Q.%.9 > ( c.wX XT 4XX.%.$.9 5 ].c.f.%.V *.g.8XK j ",
"N.6.E.n.P.N.u /.x._ P L.s.lXi =.%. .G 1XpXY.K.b.4.9 K U.f.!.F K cX3Xl.> k G x.Q.#.| & J k.{.v . ",
"}.3 N.H.T.<.r C.( _ V.S.wXY.q J z 2 H $X$X7.G I.gXsX5XG.#X{.D G.$XY.! G R.wXn._ J ' { c V.@X%.t ",
"r.: F.K p.y ,.-.S.*XU.6XK.U.D.K u u ( m.n.H * Y.yX3XG...:.C.< =.U.%.H z.$X<Xn.& ].G.^.q.].rXV 9 ",
"h d 0.f =.+.oXq.D *X2XS.{.*X:.} v ..! !.I.J : ].x.L...^.9 z 2 c :./ D ) @X,XU.W z.&XrX*XV %.F sX",
"6.x % g -.7.*X6.h tXN.U 4.*Xs 7.zX4X*.).&Xk =._.*.l._.4Xw.e.T N.k L 7 ].M.#.$.0 &.V.rXz.C @X-X,X",
"(.] % O.@.A.S.Y.Y.3X( s 6 V 7.G.e.%.P G.D -.N.M.`.l. X5.u v K S._ z.=XdX^.1.i $.$.f.h.E y.@Xf.0X",
"j d ] d n Y.qXT.U `.x.( V s -.{.k.G.6.$.P  Xq.8X6X2X8XC.h v j %.( ! +X/.; 5X+X;.:.H K.S y.^ h.:X",
"j O.9. .a 6XyXj.Z `.H U N.N.4.N.U.)./.5 J 7.7.9 D 4.8XG.C._.).7./.,.k q | 1X).A.E ! ) k.7 5 E Q ",
"D.-.D.6.4.#X%X2.g.T > a T s N.K 7. X:.a 7. X].5 7._.rXG.f.k. Xq.f b 1 * k.$X_ *.H.K.*.].D > Z.p.",
"I 7.M.g.S.n.g.4.G.9 : z @.3 N.%.K  X-.9 k aXq.F _.G.2XC G V.)././.3.n s H.OX7 Z x.V.@X3XV.P 1X`.",
"D K :.4.f.,XR.7.c - >.o.r I ).&X2X_.G.XXs G.R 4.*X Xl.k K ..XX7. X}.I %.7.( `.OXrX3XU.`.M.L H R.",
"| Z.=.H -X-XrXY # ,.' : : N. XY.S.}. .N.T 7.*.H yXaX6X7.2XuX XW Y.7.F l l.hX XU.2XOX/ g.k.:.E yX"
};
