/* XPM */
static char *_5735eb597834014f6b6bc74dbbc3e1cYnDMjY2IUGXbiO8w[] = {
/* columns rows colors chars-per-pixel */
"48 48 239 2 ",
"   c #010202",
".  c #0B0C0A",
"X  c #061C04",
"o  c #151515",
"O  c #1B1B1B",
"+  c #181818",
"@  c #022401",
"#  c #082901",
"$  c #063D02",
"%  c #0B3906",
"&  c #133909",
"*  c #183913",
"=  c #242524",
"-  c #2C2C2C",
";  c #333333",
":  c gray22",
">  c #302D30",
",  c #0C4402",
"<  c #0C4703",
"1  c #144405",
"2  c #134C04",
"3  c #13440A",
"4  c #154B0A",
"5  c #1C4C0B",
"6  c #1B4908",
"7  c #135304",
"8  c #195505",
"9  c #15520B",
"0  c #1C540C",
"q  c #1C5B0C",
"w  c #195A06",
"e  c #1D4513",
"r  c #1D4D13",
"t  c #1B4915",
"y  c #1E5312",
"u  c #1D5913",
"i  c #165413",
"p  c #0D5801",
"a  c #21550D",
"s  c #225C0D",
"d  c #205F07",
"f  c #234A16",
"g  c #225413",
"h  c #235C12",
"j  c #2A5C15",
"k  c #2C541D",
"l  c #245D1B",
"z  c #2B5C1B",
"x  c #275416",
"c  c #315B1B",
"v  c #1D650C",
"b  c #1E6612",
"n  c #25630C",
"m  c #2A660E",
"M  c #28690B",
"N  c #246213",
"B  c #2B6414",
"V  c #266A13",
"C  c #2C6B14",
"Z  c #26621B",
"A  c #2C651A",
"S  c #2D6B1B",
"D  c #276E1B",
"F  c #316C15",
"G  c #31641B",
"H  c #336C1C",
"J  c #376B1C",
"K  c #2D721A",
"L  c #2E7316",
"P  c #327315",
"I  c #34731C",
"U  c #39751C",
"Y  c #367A1C",
"T  c #3B7B1C",
"R  c #357A17",
"E  c #32700E",
"W  c #2B5824",
"Q  c #365C29",
"!  c #325624",
"~  c #334F2C",
"^  c #2C6422",
"/  c #2B6823",
"(  c #346423",
")  c #346C22",
"_  c #396D24",
"`  c #3B622B",
"'  c #3B6C2A",
"]  c #366829",
"[  c #2E7622",
"{  c #347223",
"}  c #3A7424",
"|  c #3C7B24",
" . c #3D742A",
".. c #3C7A2A",
"X. c #357728",
"o. c #3D6833",
"O. c #3D7432",
"+. c #3C7B33",
"@. c #3E7C38",
"#. c #407B1D",
"$. c #416C2D",
"%. c #417C25",
"&. c #42752B",
"*. c #427B2B",
"=. c #47782B",
"-. c #446C32",
";. c #486E31",
":. c #437D34",
">. c #4A7D34",
",. c #497836",
"<. c #557A3E",
"1. c #444444",
"2. c #4B4B4B",
"3. c #5C5C5C",
"4. c #696A69",
"5. c #767676",
"6. c #3B831D",
"7. c #3C8217",
"8. c #3C8224",
"9. c #3C842A",
"0. c #3B8624",
"q. c #43841D",
"w. c #438324",
"e. c #448A24",
"r. c #44832B",
"t. c #49852C",
"y. c #46892C",
"u. c #4A8C2D",
"i. c #4A8827",
"p. c #518C29",
"a. c #4C922C",
"s. c #489429",
"d. c #52942D",
"f. c #509D2C",
"g. c #468332",
"h. c #4C8434",
"j. c #4C8B33",
"k. c #4C843B",
"l. c #4D8B3A",
"z. c #458936",
"x. c #528D35",
"c. c #52853B",
"v. c #538C3C",
"b. c #568739",
"n. c #4C9233",
"m. c #4E9638",
"M. c #539334",
"N. c #599635",
"B. c #54933B",
"V. c #59953C",
"C. c #559B3B",
"Z. c #5B9B3D",
"A. c #579B35",
"S. c #629B3B",
"D. c #5BA23C",
"F. c #58A337",
"G. c #63A13D",
"H. c #4D8943",
"J. c #538B42",
"K. c #598946",
"L. c #569242",
"P. c #5A9443",
"I. c #5C9B43",
"U. c #5D9B48",
"Y. c #599049",
"T. c #588B51",
"R. c #5F9E55",
"E. c #629B44",
"W. c #62944B",
"Q. c #629C4C",
"!. c #68984C",
"~. c #639B54",
"^. c #6A9650",
"/. c #5DA242",
"(. c #58A350",
"). c #64A243",
"_. c #65A944",
"`. c #65A34B",
"'. c #69A44B",
"]. c #6CAC4B",
"[. c #68A748",
"{. c #70A54C",
"}. c #6DB14B",
"|. c #74B64E",
" X c #64A452",
".X c #6AA453",
"XX c #6CAB53",
"oX c #6CA65A",
"OX c #71AD54",
"+X c #73AD5A",
"@X c #74A75E",
"#X c #74B452",
"$X c #76B35C",
"%X c #7ABA5C",
"&X c #79B857",
"*X c #6FB350",
"=X c #749369",
"-X c #78A468",
";X c #7CBA63",
":X c #7AB665",
">X c #75AF69",
",X c #7BC05A",
"<X c #81B958",
"1X c #83BC6A",
"2X c #80BE60",
"3X c #86A877",
"4X c #82C35B",
"5X c #88C56A",
"6X c #8CC575",
"7X c #98D379",
"8X c #91CE71",
"9X c #A4DF7B",
"0X c #969696",
"qX c gray54",
"wX c #91B18A",
"eX c #A3B59D",
"rX c #A7A7A7",
"tX c #BCBDBB",
"yX c #ADBDA8",
"uX c #9DC889",
"iX c #A2CF89",
"pX c #B8C6B6",
"aX c #A1C2A0",
"sX c #ACE08E",
"dX c #C1D2BA",
"fX c #C5C5C5",
"gX c #CACCC9",
"hX c #CED2CB",
"jX c #D1D8CE",
"kX c #D5D6D4",
"lX c #DCDCDC",
"zX c #D8D7D8",
"xX c #DDE1DF",
"cX c #E4E3E4",
"vX c #ECEBEC",
"bX c #E7E8E7",
"nX c #F1EFF1",
"mX c #F3F3F3",
"MX c #FEFEFE",
/* pixels */
"A , A } ..j.%...K V x.x.) B | t.j.U V.e.a.t.4 y 3 y _ } %.'.%XV.j.XXP y.V.t.r.0 9 A U y.N { _.0.",
"4 *.*.F ..U C S N } C H h < S x.`.j.q L 8.Y } 4 1 ~.1X4 r.9XG.s F ).5X:XL.:.9 Z ' ) H %.0 | A.M ",
"5 '.h.J H H A , 3  .0 0 B a } B z.l.q V C r.$Xh. .1XiX`.S.).).p.E <XsX-Xx 3 W W 4 j B.M.{ t.A.n.",
"&.=.B B A L.h._ ' A 2 h ;X5XP.< S y.z.N n j.E.x.H $X).4X{.H G J b..X;.o.* X e Q ` &.m.n.I.w.u./.",
"g 1 g , j c.&.x.Z.j.B { 6X7Xj.7 S | h.8 2 n | [.n P #.).G % z G ( f @ * & @ % c W.I 0.m.g.S j.V.",
"f t z ) v.0 A %.).'.:. .l.I.B.I.| q 2 4 4 2 ..U.V , A g r 3 ,.^.!.,.5 6 x <.!.K.v.C b ..:.3 H B.",
"K.e H M.Z.q < A V...) _ } n y.V.S 8 A j 9 < X.[ 9 u l 4 / ..P.8XiX.X!.P.&.' !.h.w 0.v V L.H._ } ",
"W.x *.y.w.C 0 q g.S H.A *.w.I C } } :.h u D 9.V 9 { :./ Z oXOXt.;X6XP.}  .$ :.+.b s.f.6.).;XH , ",
"E.j } P 6.| h N g.Z y 1 *.U C C ..A 4 1 V [ 9.K , A *.0 h .X[.w E.:XO.3 r $ +.{ D 6.F.7.T t.v.J.",
"S.1 z M e.| h C C A r a } m R T | y W 4 S (.X.u Q.V.s $ , r.N.H 6X~.1 z % t r.).u.T D.i.S g.5X1X",
"=.5 *.n.n.v.G } y.} 5 j } m 6.u.| g.{ 0 X.z.+.h 5X7X*.% 4 '.t.A :.k.I %.X.:...j.e.A.4XG.7 r.&XN.",
"_ 3 r.D.n.z % :.;XQ.h 6 } V.#X_.y./.9.m | V K t.&X<Xw.A { #X`.h W :.*.w.| h { j.M D.}.w.S y.d.T ",
"_ 0 n.F.T c %  .5X'.B a T V.).C.I._.a.M C 6.d.N.x.T M F M.&Xh.Z ~.O.r.*.w 9 z.| T N.T | I.x.F ) ",
"&.v._.F.M.,.e k.[.| *.V.q.XX{ r.v...{ ..g.y.M.N.a $ 0 q.S.].} h..X%.} u 4 h I.y...N 7 *.XXQ.g % ",
"c.} N._.I.&.g L.w.d r.x.}.XX9 &.j Z | ;XuXpXbX0X- = ~ ( A.i.4 h.8X].H 2 ) %.d.w.Z l , X.Z.S.g @ ",
",.5 x.u.l.l ] ..w.M.B.).).I _ j 3 0 3XjXbXmXMX0X. o O O ~ >.A U.Z.y.P w.#X4Xq.n +.^ ^ ) E.).z & ",
"z k >.B X.l H.*.N.`.V.$XV.I.J.g 4 =XbXvXnXmXmXcXrX5.1.O . 4.eX:.r.C L a.|.|.P q U.`.L.l..Xh.s ..",
"6 Q k g { l.Q.A A +XV.x.`.`.H ] wXcXvXmXmXmXmXMXMXMXmX0XqXbXnXyX .N 0 8.D./.z.S j.[.5XL.N H I.%X",
";.f e Q  .P.E.*.v.+XB n U j.N wXcXmXvXmXmXMXMXMXMXMXMXMXMXMXmXbX=XP S  XJ.S N q | Z.Z.C | [.]._.",
",.f f W  .V.M.V.I.I.| s 2 n v.jXfX4.1.1.rXMXMXMXMXMXMXMXmXmXmXmXkXV.5X~.+.+./ X.{ | e.M M.a.e.%X",
"x Q ! k J OX%Xe.Y V.w.I C I 3XbX2.  O O 4.MXMXMXMXMXMXMXMXMXMXmXvXwXQ.l Z >X Xl.C I e.L P M a.C.",
"k ,.-.G I 5X].Y T j.8 J h. .pXfXo o = - 1.mXMXMXMXMXMXMXMXMXMXmXnXeX( 8 j. Xj.j.Y T | z.< 7 | V ",
"r.2 0 *...j.| ..V C y.x.H h xX0X  O = - ; fXMXMXMXMXMXmXqX3.fXMXmXtXY.I j.r.B.B 4 { | e.} N /.s.",
"h h ) H *.r.F | { { H *.) 0 cX5.  o = = : gXMXMXMXMXbX4.- = = rXvXhX3XXXI.B.N h ^ ] C U A s _.R ",
"5 b.h.H H H A 4 4 >.A a 8 2 kXtX-   o ; fXMXMXMXMXmX4.; : - o ; zXcXdX6X' l t ^ 4 x } N.H %.M.u.",
"B h.*.G A _ c.j ( 0 h 4 .X.XfXbXgX1.- gXMXMXMXMXMXmX2.; - = o 1.bXlXaXT.~ @ f o.` ( L.u..Xy.T #X",
"' 5 a 2 4 J.c.*.N.j.h 8 >X6XpXzXbXlXkXMXmXMXMXMXMXMX5.= = O . 5.nXpX` f * @ # x $.*.Y n.9.| t.N.",
"3 & ' 0 h.G A %.N.].P.{ Q.XX3XzXzXcXbXbXmXmXmXMXMXMXrXo O . . tXbX3X6 & f k ;.=.oX%.b z.X.u A P.",
"T.e ( } '.H 4 h j.B.S h } d l.fXzXlXlXbXbXvXmXmXmXMXgX: - : 5.cXhX@Xc.b.&.=.^.!.h 8.p K .. .g *.",
"@Xg  .t.N.C u 2 B.s J.:...r.%.-XzXkXcXbXbXbXbXbXvXbXbXlXkXcXbXzXwX7XU._ v., A Q.q n.s.Y B.1XQ.a ",
"{.G >.Y e.8.N 2 j.A l 4 H j.n | eXlXtX5.fXvXvXbXcXcXcXbXcXlXkX=Xt.6X:X4 ] $ / z.w Y f.q.E M.A S ",
"<X6 j m a.e.q B U h z 1 } U T P P.wX>   + 3.0XtXcXlXlXzXzXkXuXC Q.>Xt r & % S U.y.R F.a.| *.&X6X",
"{.5 &.8.0.B.&.B ..{ z 6 >.2 E q.w...o..       = gXlXzXkXpX-XV.s Y.oXB v.g :...y.M.e.|.}.8 N #X].",
"%.1 ) /.Z.*.r ( `.`.h 0 } %./.].u.n.r.0 e X   + rXkXyX=X' `.OX} , O.C T r.S { B.P a.&Xd.w.U _.P ",
">.g I C.y.G % A $X[.=., } t.Z./.V.D./.L I 0 W =XeXwXh.m U ).#X2 T.H.*.| P 7 S Z.v M.d.P I.h.| I ",
"} *.M.D.A.c.k ^ OXV.| v.w.N.P.P `.g.X.K | y.e.G.} 0 2 U p.|.`.) oX) } { 0 9 U.u.w.} s ..r.+XG g ",
"h.&.Z.d.A.h.g J.t.U H B.w.8Xu } } ^ N  X:XV.M.d.%.0 A B.q.G.B A 6XOXr.2 h B i.Z.I ) , Z r.S.z @ ",
"W.5 h.n.C.+.r k.U U j.x.&XV.q A g 4 C _.[.r.N Z.2X;XoXl.'.E.B x.[.V.I B Z.#Xd.T Z l ^ j j.).} r ",
"<.1 b.A 9.i O. .x.'.B.OXN.M.k.^ y 0 | d.d.B , V.&XXXv.{  .k.3  .B.U C y._.&Xd.< U.B.J.g.U.$Xs u ",
"x e ;.r { X.~.:.h '..Xj.).'...^ j _ P G.A.A 2 U.u.B.{ J.0 l 4 h ..I N | _.*XB.S y.[.$X XN } B %X",
"$.k e f  .r.'.} u $Xh.F %.[.N ..6X+X%.I.Q.h } L.T t.P.oX>.>.) g.h S 8 U.r.{ { w | u.$Xy.m `.].*X",
"<.! * ` _ x.x.V.B.XXI n 8 n *.v.h.} A x.N  .h.g.I.t.`.&.r z A x.T y. X:XH.@.u { { r.e.P T ).w.#X",
"c f ! f G V.#XZ.P I.j.U n s | E.g.v...{ S U.:.+XOXXX+Xk.g z h } T P `.l.4 oXR.X...C M.E T R e.}.",
"x ` -.( a XX&Xu.n I.C F h.h.*.j.x.L.J.9 A *.*.0 B ..+Xv.h.U.P.*.J.+.h q S  XB.B.K L Y r.w 7 L K ",
"c. .c.%.%.[.].T t.S 4 a J a h.S *.Q. .q *.Q.U.9 *.L.$Xx.w.y.Q.:.r k 6 < w._.T ..j.N.| Q.N 2 z.9.",
"A *.h.r.x.d.i.%.v.0 1 x ' 8 h.} S E.} 0 h :X*.A P.v..Xm m j.L.L.K.;.c s n.).w n u.t.`.XXl.S .XI.",
"h S | r.%.#XZ.*.h 3 o.( g G P.`..XP.v.~.h B.I %.`.Q.h.N A ) Q.*.Q.W.G } *.T I.E.$XXXV.Z.g.S C N.",
") k.{ C ].].$XS & O.W 3 1 >.Q.V.h.W.) k.H *.| C %X;XOX*..X@XQ.I V.*.A h r.1XQ.B..XU.I y.r...C ,X"
};
