/* XPM */
static char *c4ffe6afa6084cd2ce189e7802c5deaaAn1332DouvF0nW5E[] = {
/* columns rows colors chars-per-pixel */
"48 48 236 2 ",
"   c #000000",
".  c #05040A",
"X  c #001B00",
"o  c #050813",
"O  c #181418",
"+  c #012A01",
"@  c #023501",
"#  c #093B07",
"$  c #133809",
"%  c #133318",
"&  c #060527",
"*  c #15172B",
"=  c #362D2B",
"-  c #2B3A32",
";  c #0C4401",
":  c #0C4804",
">  c #144406",
",  c #134C04",
"<  c #13440A",
"1  c #144B08",
"2  c #1D4C0C",
"3  c #1B4908",
"4  c #0E5904",
"5  c #1D550C",
"6  c #1C5B0C",
"7  c #155607",
"8  c #1D4513",
"9  c #1E4E13",
"0  c #1C4A17",
"q  c #1C5712",
"w  c #225C0C",
"e  c #21560C",
"r  c #224A16",
"t  c #225314",
"y  c #245C12",
"u  c #2A5C15",
"i  c #2C5C1A",
"p  c #27571A",
"a  c #315B1B",
"s  c #17660A",
"d  c #1C6712",
"f  c #1E7313",
"g  c #1A730D",
"h  c #24630C",
"j  c #27690C",
"k  c #246213",
"l  c #2B6414",
"z  c #2B6B14",
"x  c #2C651A",
"c  c #2D6B1B",
"v  c #266517",
"b  c #31641B",
"n  c #336B1C",
"m  c #336B17",
"M  c #2D7519",
"N  c #317315",
"B  c #34731C",
"V  c #39751D",
"C  c #357B1C",
"Z  c #3B7B1C",
"A  c #357A17",
"S  c #32700E",
"D  c #2D5924",
"F  c #355A27",
"G  c #2B6623",
"H  c #346C22",
"J  c #386827",
"K  c #347323",
"L  c #3A7424",
"P  c #3C7C24",
"I  c #3D742A",
"U  c #3D7A2A",
"Y  c #357725",
"T  c #3D7733",
"R  c #3D6834",
"E  c #125D33",
"W  c #417C24",
"Q  c #42762C",
"!  c #427B2B",
"~  c #447827",
"^  c #446C32",
"/  c #437D33",
"(  c #4A7934",
")  c #487033",
"_  c #00005C",
"`  c #352F4A",
"'  c #01086A",
"]  c #037F7C",
"[  c #544544",
"{  c #686576",
"}  c #38841B",
"|  c #2C841A",
" . c #0C8637",
".. c #138B39",
"X. c #19963A",
"o. c #1C912A",
"O. c #2D8425",
"+. c #3A8526",
"@. c #3B972A",
"#. c #3B923A",
"$. c #34A53F",
"%. c #42851B",
"&. c #428425",
"*. c #448A24",
"=. c #44832B",
"-. c #49862C",
";. c #46892C",
":. c #4A8C2D",
">. c #498927",
",. c #4B932B",
"<. c #51932D",
"1. c #509D2C",
"2. c #468332",
"3. c #4C8434",
"4. c #4C8B33",
"5. c #4B8839",
"6. c #528D35",
"7. c #538D3B",
"8. c #54863B",
"9. c #4B9233",
"0. c #489838",
"q. c #539434",
"w. c #55933B",
"e. c #5A953D",
"r. c #5B9B3D",
"t. c #559A36",
"y. c #528A2C",
"u. c #629A3E",
"i. c #58A43A",
"p. c #4AA239",
"a. c #64A13E",
"s. c #16934B",
"d. c #249B46",
"f. c #29A449",
"g. c #2BA650",
"h. c #0A8A68",
"j. c #4C8741",
"k. c #558A43",
"l. c #569242",
"z. c #5B9443",
"x. c #5C9C43",
"c. c #5D9B48",
"v. c #57984F",
"b. c #619B44",
"n. c #629C4C",
"m. c #64954B",
"M. c #649A52",
"N. c #6A9650",
"B. c #5BA642",
"V. c #4AAD47",
"C. c #63A343",
"Z. c #65A24B",
"A. c #69A848",
"S. c #70A54C",
"D. c #6AB14B",
"F. c #6BA553",
"G. c #6DAB52",
"H. c #69A554",
"J. c #72AC59",
"K. c #68B452",
"L. c #73B552",
"P. c #76B35C",
"I. c #79B959",
"U. c #72B54F",
"Y. c #7B866C",
"T. c #7CB963",
"R. c #74AB66",
"E. c #73C563",
"W. c #7BC05A",
"Q. c #FFF700",
"!. c #82B85A",
"~. c #9E827F",
"^. c #82BD69",
"/. c #82C35B",
"(. c #86C468",
"). c #8DC874",
"_. c #93D07A",
"`. c #A4DF7B",
"'. c #FFF94D",
"]. c #000086",
"[. c #0101B3",
"{. c #0037A7",
"}. c #3029A5",
"|. c #006892",
" X c #004AAD",
".X c #0043B5",
"XX c #3A6BB3",
"oX c #7F789F",
"OX c #001ADD",
"+X c #0015D6",
"@X c #0000D4",
"#X c #0025D2",
"$X c #0002EC",
"%X c #000CEB",
"&X c #0015E2",
"*X c #0916E9",
"=X c #0000F6",
"-X c #0E0CF5",
";X c #0807F6",
":X c #1A19F8",
">X c #1715F5",
",X c #2A25F4",
"<X c #564AE8",
"1X c #5C55F5",
"2X c #7867EA",
"3X c #85768C",
"4X c #399E82",
"5X c #6D92AD",
"6X c #B99997",
"7X c #A59EB2",
"8X c #8F9B9C",
"9X c #C6A39F",
"0X c #C7B2A9",
"qX c #E6BEB8",
"wX c #98CF86",
"eX c #A8DE89",
"rX c #AF94D1",
"tX c #BDB5C4",
"yX c #9E88E5",
"uX c #9894F9",
"iX c #8B84FB",
"pX c #A59EFC",
"aX c #B79DE1",
"sX c #ADA4FC",
"dX c #9788D1",
"fX c #D7BAD7",
"gX c #E6BFD1",
"hX c #F7CCCA",
"jX c #FED2CC",
"kX c #E8C2D4",
"lX c #D2C8FD",
"zX c #D3DAEC",
"xX c #EBDFFE",
"cX c #F9EDFE",
"vX c #F2EDF7",
"bX c #D3EDD8",
/* pixels */
"x ; x L U 4.W P B z 6.4.H l P -.4.V e.&.<.;.1 9 < 9 H L W S.I.e.4.H.B ;.e.4.=.5 7 x V ;.v Y A.+.",
"1 ! ! m U V z c v L z n y ; c 7.Z.4.6 M +.V L 1 1 M.^.1 =.`.u.w S C.(.T.l./ 1 v I H m W 5 P t.j ",
"2 Z.3.V n n x ; < I 5 5 u e L l 4.7.6 z z =.P.3.I ^.eXZ.a.C.b.y.S !.eXR.p < D D < i w.q.K -.t.9.",
"~ ~ l l x l.3.J I x , y T.(.z.: v ;.4.k h 4.b.6.n P.C./.S.m b n 8.N.) R % X 8 F J Q w.9.x.&.:.B.",
"t > t ; u 8.Q 6.r.4.l K )._.4., c P 5.7 s 4 s M 4 s s i.b # i b J r + $ $ + $ a m.B +.w.2.c 4.w.",
"r 0 i H 7.5 x W C.Z./ I 4.x.w.x.P 6 4 4 4             s 6 7 ( F.m.( 2 3 p ( m.z.7.z d U / < n w.",
"k.8 n q.r.6 : x e.U H H V h ;.e.v s 4 @ X             X @ 6 @.).eXF.n.z.Q J N.3.7 +.s k l.j.J L ",
"m.u ! ;.&.z 5 6 2.c j.x ! +.V c L f X                     X @.-.T.).z.L I @ / T d ,.1.} C.T.n ; ",
"b.u L N } Y y k 2.v 9 > ! V z z U 6                         M 6 b.T.T < 0 @ T K z } i.} Z -.7.k.",
"u.> i j *.P y z z x 9 e L h A } f @                         $ g E.M.> i # 0 =.C.:.Z i.>.c 2.(.^.",
"! 2 Q 9.9.7.b L ;.L 2 u L j } |                                 O.5.V W L / U 4.*.t./.a.7 =.I.t.",
"H < =.i.9.i # / T.n.y 3 L w.L.@.                                d / =.&.P y K 4.j i.D.&.c =.<.V ",
"L 5 9.t.Z a # I (.A.l e Z e.C.@.                                #.T =.! 7 7 4.P V q.Z P x.6.m H ",
"Q 7.C.i.q.( 8 5.A.P ! e.%.G.K |                                 0.W L 6 1 k x.;.P y 7 ! G.n.t # ",
"8.L t.C.x.Q t l.>.w =.6.D.D. .E                                 E g.C , H &.<.>.v p ; K r.u.t + ",
"( 2 6.:.9.p J ! >.q.w.C.C.o.{.'                                 ' {.o.&.L./.&.h T G G H b.C.i # ",
"i p ( l Y p j.! w.Z.$.] |. X+X'                                 ' +X X|.] V.B 6 B.Z.l.5.H.4.w U ",
"3 F p t K 5.n.x x P.h.#X%X=X=X].        O = = = = = = O         ].=X=X%X#Xh.2.c 4.A.(.l.k n x.I.",
") r 8 F I z.b.! 7.P.h.%X=X=X=X]..     . [ 6X9X9X9X9X6X[ .     . ].=X=X=X%Xh.k 6 P r.r.j P A.D.C.",
"( r r D I e.w.w.i.f. X=X=X=X=X[._ & O [ ~.hXhXjXjXhXhX~.[ O & _ [.=X=X=X=X Xs.O.Y P *.j q.,.*.I.",
"t F D p n G.I.&.X.#X$X=X=X=X=X$X@X' ` 6XqXjXjXjXjXjXjXqX6X` ' @X$X=X=X=X=X$X#Xd.c V &.N N j ,.t.",
"i ) ^ G V (.D.A X.&X=X=X=X=X=X=X$X[.}.dXfXjXjXjXjXjXjXfXdX}.[.$X=X=X=X=X=X=X&Xd.V V P 2.: 7 Y z ",
"=., 5 ! P 4.P P ..&X=X=X=X=X=X=X=X=X,X2XaXgXhXjXjXhXgXaX2X,X=X=X=X=X=X=X=X=X&X..1 K P &.L k B.,.",
"y y H m ! =.m P X.&X=X=X=X=X=X=X=X=X-X,X<X2XaXkXkXaX2X<X,X-X=X=X=X=X=X=X=X=X&X .G H z V x w A.A ",
"2 8.3.V n V x 1  .&X=X=X=X=X=X=X=X=X=X=X>X,X2XyXyX2X,X>X=X=X=X=X=X=X=X=X=X=X&X..1 u L e.n P q.:.",
"u 3.~ b x H 8.u ..&X=X=X=X=X=X=X=X=X=X=X=X;X>X:X:X>X;X=X=X=X=X=X=X=X=X=X=X=X&Xs.J J l.:.H.;.Z L.",
"J 2 e , 1 k.8.! f.&X=X=X=X=X=X=X=X=X=X=X=X=X=X=X=X=X=X=X=X=X=X=X=X=X=X=X=X=X&X .^ ! C 9.+.L -.t.",
"< $ J 5 3.b x W f.'.'.'.'.'.'.'.'.'.'.'.'.'.'.'.'.'.'.'.'.'.'.'.'.'.'.'.'.'.'.d.F.W d ;.U q x z.",
"m.8 G L Z.n 1 y d.Q.'.Q.'.Q.Q.Q.Q.'.'.'.Q.Q.'.'.'.'.'.'.'.'.'.'.'.Q.Q.'.'.'.'.g.y +.4 M U I t ! ",
"J.t I ;.t.z q , f.Q.'.'.'.'.'.'.'.Q.Q.'.'.'.Q.Q.Q.Q.Q.Q.Q.Q.Q.Q.'.'.'.Q.Q.Q.Q.g.6 9.*.C w.^.n.e ",
"S.b ( V *.+.v , d.&X=X=X=X=X=X=X=X=X=X=X=X=X=X=X=X=X=X=X=X=X=X=X=X=X=X=X=X=X&Xd.7 C 1.%.S q.x c ",
"!.3 u h ,.&.6 l X.&X=X=X=X=X=X=X=X=X=X=X=X=X=X=X=X=X=X=X=X=X=X=X=X=X=X=X=X=X&Xf.;.A t.<.P ! I.).",
"S.2 Q P +.w.Q l X.OX=X=X=X=X=X=X=X=X=X=X=X=X=X=X=X=X=X=X=X=X=X=X=X=X=X=X=X=XOXd.q.*.U.D.7 v L.D.",
"~ > H B.r.! 9 G V.h..X=X=X=X=X=X=X=X=X=X=X=X=X=X=X=X=X=X=X=X=X=X=X=X=X=X=X.Xh.0.N ,.I.<.&.V A.A ",
"( t B t.;.b # G P.A.h.OX*X-X-X-X-X>X:X:X:X>X*XOXOX*X>X:X:X:X>X-X-X-X-X*XOXh.c r.d q.<.M x.-.P B ",
"L ! q.i.t.8.p G L.t.O.d.XX<X<X1X1XiXpXsXpXuX4Xf.X.4XuXpXsXpXiX1X1X<X<XXX..s x.:.&.Y w P =.P.b t ",
"3.Q r.<.t.3.t k.:.Z n w.V.5XdXyXuXlXcXcXvXzXV.<.W O.zXvXcXcXlXuXyXdX5Xd.y k :.u.B H ; v =.u.u + ",
"m.2 3.9.t.T 9 5.V Z 4.q.L.V.0XfXlXxXcXcXvXbXO.r.^.E.bXvXcXcXxXlXfX0X@.z r.L.<.P v i G i 4.C.L 0 ",
"( > 8.x +.q T I 6.A.w.J.t.p.Y.3XoX8X7XtXwXp.4 e.I.K.K.wXtX7X8XoX3XY.| ;.C.I.<.; c.w.k.2.c.P.w q ",
"t 8 ) 9 K K M./ y Z.F.4.C.i.% & & * ` { V.v , x.:.w.H V.{ ` * & & % f P C.U.w.c ;.A.P.H.k L k I.",
"^ a 8 r I 2.F.L q P.3.m W i.# o o o * - 0.y L l.Z -.z.0.- * o o o # s c.=.K K 7 Y :.P.;.j Z.A.U.",
"( F $ R J 6.6.e.w.G.B h 7 j d @ + + @ q g I 3.2.x.-.Z.O.: @ + + @ f B.T.j.T q K K =.&.N Z C.&.L.",
"a r D r b e.L.t.N x.4.V h w P B.+.9.+.Y c c.2.J.J.G.J.3.d v k C | M Z.7.1 R.M.Y U z q.S Z A *.D.",
"t R ^ J e G.I.:.h x.z m 3.2.! 4.7.l.l.1 x ! ! 5 l U J.7.2.c.z.Q k.T y 6 c H.w.w.M M V =.7 , M M ",
"8.I 8.~ W A.A.Z -.c 1 e n e 5.c ! n.I 5 ! n.c.1 ! l.P.7.&.=.n./ 9 p 3 : &.C.Z P 4.t.P n.k , 5.+.",
"x Q 5.=.6.<.>.W 7.5 > t I 7 5.L c n.I 5 y T.! x z.7.F.j h 4.l.l.k.^ a w 4.C.6 h :.;.Z.G.7.c H.x.",
"y x L ! W L.r.! y < R J t b z.n.F.z.7.M.y w.B W Z.n.2.k x H n.! n.m.b L ! V x.b.P.G.w.r.2.c c t.",
"H 5.K z G.D.P.c # T D > > ( n.e.3.m.H 3.n ! P z I.T.J.Q H.J.n.B e.! x u -.^.n.w.F.x.B ;.=.U M W."
};
