/* XPM */
static char *ae70bd98338e4e34fe6724a2e6c6ab83rRgztI89ZZ9UMZXO[] = {
/* columns rows colors chars-per-pixel */
"48 48 253 2 ",
"   c #000000",
".  c #00000D",
"X  c #030C02",
"o  c #031602",
"O  c #00001A",
"+  c #032501",
"@  c #083905",
"#  c #133708",
"$  c #123414",
"%  c #000225",
"&  c #0C0E30",
"*  c #362C2C",
"=  c #2A2423",
"-  c #261F2C",
";  c #0D4302",
":  c #0C4505",
">  c #144406",
",  c #134C04",
"<  c #13440A",
"1  c #164C0A",
"2  c #1C4B0A",
"3  c #0D5609",
"4  c #1C540C",
"5  c #1D5B0C",
"6  c #155406",
"7  c #1D4D13",
"8  c #1D4715",
"9  c #1D5514",
"0  c #225C0C",
"q  c #21550D",
"w  c #224A16",
"e  c #235414",
"r  c #245D12",
"t  c #295C14",
"y  c #2B5D1B",
"u  c #28571A",
"i  c #315B1B",
"p  c #19670A",
"a  c #1C6613",
"s  c #1C781A",
"d  c #0E6205",
"f  c #26660C",
"g  c #246213",
"h  c #2B6414",
"j  c #2C6A13",
"k  c #2C651A",
"l  c #2D6B1B",
"z  c #266519",
"x  c #31641B",
"c  c #336B1C",
"v  c #336C17",
"b  c #2C7819",
"n  c #34721C",
"m  c #39751C",
"M  c #3A7B1C",
"N  c #337515",
"B  c #2C730E",
"V  c #2A5A24",
"C  c #355927",
"Z  c #15712E",
"A  c #2B6A25",
"S  c #346C22",
"D  c #396D24",
"F  c #376829",
"G  c #297B2A",
"H  c #347323",
"J  c #3B7424",
"K  c #3D7B24",
"L  c #3C732A",
"P  c #3D7B2A",
"I  c #357626",
"U  c #3D7833",
"Y  c #327335",
"T  c #0E523A",
"R  c #427C24",
"E  c #42762B",
"W  c #427B2B",
"Q  c #477A2B",
"!  c #446C32",
"~  c #4A7D34",
"^  c #467A35",
"/  c #4C7435",
"(  c #040346",
")  c #070669",
"_  c #053369",
"`  c #0E684D",
"'  c #087B76",
"]  c #0A7174",
"[  c #085E47",
"{  c #6D6472",
"}  c #3B851C",
"|  c #2A8016",
" . c #158932",
".. c #398525",
"X. c #3A9635",
"o. c #2E8C2E",
"O. c #32A33C",
"+. c #1C841F",
"@. c #428425",
"#. c #44832B",
"$. c #49852D",
"%. c #45892B",
"&. c #4B8C2D",
"*. c #468B26",
"=. c #4A932C",
"-. c #51952D",
";. c #458332",
":. c #4C8433",
">. c #4D8B33",
",. c #4E8B3B",
"<. c #4A843A",
"1. c #528C35",
"2. c #538D3B",
"3. c #53853B",
"4. c #4D9334",
"5. c #539334",
"6. c #54933B",
"7. c #59943C",
"8. c #5B9A3D",
"9. c #559A36",
"0. c #528E2B",
"q. c #629A3E",
"w. c #59A339",
"e. c #46A235",
"r. c #62A23C",
"t. c #48861F",
"y. c #158C4B",
"u. c #1A954C",
"i. c #148C58",
"p. c #319347",
"a. c #0E8271",
"s. c #37A657",
"d. c #4E8A45",
"f. c #528B43",
"g. c #578944",
"h. c #5B9443",
"j. c #5C9B43",
"k. c #589544",
"l. c #57934E",
"z. c #629D4C",
"x. c #639848",
"c. c #679951",
"v. c #5BA343",
"b. c #42B34D",
"n. c #52AF47",
"m. c #64A443",
"M. c #65A24B",
"N. c #69A849",
"B. c #6CB34C",
"V. c #6AA553",
"C. c #6DAA52",
"Z. c #67A756",
"A. c #71AD54",
"S. c #72AA5B",
"D. c #6BB851",
"F. c #74B452",
"G. c #76B45B",
"H. c #78BA59",
"J. c #72AB4D",
"K. c #7AB866",
"L. c #72AE69",
"P. c #79C35B",
"I. c #6BC55B",
"U. c #73C966",
"Y. c #FFF700",
"T. c #82B85A",
"R. c #82BE67",
"E. c #80BE78",
"W. c #87C768",
"Q. c #8FCF74",
"!. c #80C35A",
"~. c #0001A4",
"^. c #0408A9",
"/. c #0403B6",
"(. c #0439BE",
"). c #003F99",
"_. c #413D95",
"`. c #055798",
"'. c #08578E",
"]. c #066A87",
"[. c #026393",
"{. c #087683",
"}. c #004BAA",
"|. c #0652A7",
" X c #0143B5",
".X c #1664A9",
"XX c #001BDC",
"oX c #0D0CD2",
"OX c #0122D7",
"+X c #0D2FCC",
"@X c #040AEA",
"#X c #0012E5",
"$X c #0001F6",
"%X c #0000FC",
"&X c #0C0BF5",
"*X c #110EF3",
"=X c #1B19F6",
"-X c #1511ED",
";X c #211FF8",
":X c #2826F8",
">X c #3734F8",
",X c #392FED",
"<X c #453DF1",
"1X c #3C52E0",
"2X c #5052D0",
"3X c #554DF4",
"4X c #6D5BE9",
"5X c #716CF9",
"6X c #8F76AA",
"7X c #957ADC",
"8X c #8971DF",
"9X c #937FED",
"0X c #428699",
"qX c #2E988F",
"wX c #88A8A8",
"eX c #A7929B",
"rX c #CBA7A2",
"tX c #C4A1A0",
"yX c #90D188",
"uX c #A8E28C",
"iX c #B5E6B0",
"pX c #A3DAA3",
"aX c #D7C8BC",
"sX c #8C82CE",
"dX c #928FF7",
"fX c #A79FFC",
"gX c #ACA3FC",
"hX c #B5ABF6",
"jX c #D6B9C9",
"kX c #CEB3E1",
"lX c #D1D7D2",
"zX c #EEC6CD",
"xX c #FACFCA",
"cX c #F0C6CE",
"vX c #FED2CC",
"bX c #FAD4C8",
"nX c #FFD2D1",
"mX c #FEDAD8",
"MX c #F0CCD0",
"NX c #C9EBC6",
"BX c #DCE8DA",
"VX c #DED7FA",
"CX c #D2C8F9",
"ZX c #E7DBFD",
"AX c #F4D9E7",
"SX c #FDE4E7",
"DX c #FEECF5",
"FX c #F5EBF9",
"GX c #FEF2FE",
"HX c #FFFDFE",
"JX c #FAF5F9",
"KX c #E8F0E5",
"LX c #EAEBDB",
/* pixels */
"k ; k J P >.R P n j 1.>.S h K $.>.m 6.@.-.*.d 3 3 3 a a b M.G.7.>.V.n #.6.;.#.5 1 k m #.g H N...",
"1 W W v P m j l g J j c r ; l 1.M.>.5 b ..| : X X X X o a Q.r.f v m.W.K.k.^ 1 z Y S c R 6 K 9.f ",
"2 M.:.n v c k ; < L 4 4 h q J h >.,.p p 3 @ X           o @ 3 b B T.uXS.u < V V 1 t 6.5.H $.9.4.",
"E Q h h k g.:.D L k , r K.W.h.; z #...@                     X @ =.V.! F $ o 8 C F E 6.4.j.@.&.v.",
"e > e ; t 3.E 1.8.>.g H Q.Q.>., l K ..o                       o b 8 + $ # + # i x.n ..6.;.l >.9.",
"w 8 y S 2.4 k R m.V.^ L ,.j.6.j.K p ; X                         z I 2 2 u / x.g.2.j a P ^ < c 7.",
"g.8 c 5.8.5 : k 6.P S I o.s X.p.s +                             o H j.h.E D c.:.5 ..p g k.f.D J ",
"x.t W %.@.j 4 5 ;.l f. .'.`.`.'._ .                               A ,.J L @ ^ U g =.-.} m.K.c ; ",
"x.t J N } I r g X.` ` ] %X%X%X%X~..                               A Y < 7 @ U H j } w.} M $.2.f.",
"q.> y f *.K t b i.}.(.#X$X$X$X$X~..                               9 3 k @ 7 ;.m.&.M w.*.l ;.W.R.",
"Q 7 W 4.4.2.x o.].$X%X%X$X$X$X$X~..                               $ Z o.J ;.P >.*.9.!.r., #.H.9.",
"D < #.w.>.y : p.|.%X$X$X$X$X$X$X~..                               % ^.] G z I >.f w.B.@.l #.-.M ",
"D 4 4.w.M i Z {.XX%X$X$X$X$X$X$X~.O                               & /.OX`.' u.o.M 9.M K j.1.v S ",
"E 2.m.w.5.:.s.2X=X$X$X$X$X$X$X$X/.( & - = * * * * * * * * * * * - ) oX%X$X@X|.p.P r 6 W C.z.e @ ",
"3.J 9.m.n.yXlXhX3X=X&X%X$X$X$X$X@XoX_.{ eXtXtXrXrXrXrXrXrXrXrXtX6X2X-X%X$X%X(.u.z u ; I 8.q.e + ",
"^ 2 1.e.U.BXGXZXgX3X=X$X$X$X$X$X&X&X2XeXzXMXxXxXxXxXxXxXxXxXxXzX7X<X&X$X$X%XXX] u. .G S x.m.y @ ",
"y u >.E.BXGXGXGXJXhX:X$X$X$X$X$X$X%X5XCXFXSXmXvXvXvXvXvXvXvXvXcX4X=X$X$X$X$X$X#XOX|.i.,.V.>.0 P ",
"2 C S NXGXGXGXGXHXlXqX}.$X$X$X$X$X$X3XgXZXDXSXSXSXmXvXvXvXvXxXjX3X&X$X$X$X$X$X%X$XXXa.k.g v j.H.",
"! w 7 K.iXFXGXGXGXiXo. . X#X%X$X$X$X>X5XgXVXFXGXDXSXMXcXjXjXkXsX,X&X$X$X$X$X$X$X$X@X[.+...N.B.m.",
"/ w w F Z.BXGXGXGXuXK p [ |.%X$X$X$X&X:X>X5XVXHXHXDXAXhX8X3X,X:X*X$X$X$X$X$X$X$X$X$XXX`.O.=.*.H.",
"e C C u %.NXGXGXGXyX%.n A {.Y.Y.Y.Y.Y.Y.$X:XdXhXhXgXdX4X,X&X$X$X$X$X$X$X$X$X$X$X$X$X%X%Xy.f =.9.",
"u / ! S ..uXNXNXiXI.5 c p.].Y.Y.Y.Y.Y.Y.Y.&X;X:X:X:X;X=X&X$X$X$X$X$X$X$X$X$X$X$X$X$X$X$X` 6 K j ",
"#., 4 W ..v.M.Z.k...%.>.A ].%X$X$X$X$X$XY.Y.Y.Y.Y.Y.Y.$X$X$X$X$X$X$X$X$X$X$X$X$X$X$X$X$Xy.g v.=.",
"r r H v W #.v K H H c W Y ' =X;X=X=X=X=X:X=XY.Y.Y.Y.Y.Y.Y.$X$X$X$X$X$X$X$X$X$X$X$X$X$X$Xy.0 N.M ",
"7 2.:.n c n k 1 1 ~ k q 5 p.dXfXfXfXfXfXgXdX>X*X&XY.Y.Y.Y.Y.$X$X$X$X$X$X$X$X$X$X$X$X$X$Xy.R 5.&.",
"t :.W x k D 3.t F 4 r 1 V.U.KXHXHXHXHXHXHXVX9X3X:X*XY.Y.Y.Y.Y.Y.@X@X$X$X$X$X$X$X$X$X$X$Xs.%.M F.",
"D 2 q , , g.3.W 6.>.r 6 K.Q.KXJXGXGXGXGXGXFXZXCXdX<X$X$XY.Y.Y.Y.Y.OX#X$X$X$X$X$X$X$X$X$Xy.J $.8.",
"< # F 4 :.x k R 9.C.k.H M.U.LXDXGXGXGXGXGXGXGXFXCXdX1X.X[.[.[.].' {.}.OX$X%X$X$X$X$X$X$Xy.9 k h.",
"l.8 S J M.v 1 r >.6.l r P w.bXSXGXGXGXGXGXGXGXGXFXVXpXa V F f.K.Q.Z.u.}.#X%X$X$X$X$X$X@Xy.L e W ",
"S.e L $.9.j 9 , ,.0 f.^ #.D.bXmXSXSXDXGXGXGXGXGXKXL.X.H z P M.8.K.Q.v.i.XX%X$X$X%X$X Xy.e.R.z.q ",
"J.x ~ m *...g , ,.k u , J P.nXvXnXmXSXDXDXDXDXLXK...,.6 4 Z.uX0 ;.Q.K.Z OX%X$X$X$X#X].} B 5.k l ",
"T.2 t f =.@.5 h H 5 A > K D.nXvXvXvXnXmXmXmXmXW.4.;.l 1 : c G.j z.L.7 ` OX%X%X%X%XOX' -.K W H.Q.",
"J.2 E P ..6.E t P H y 2 >.v.nXvXvXvXvXvXvXvXvXN.C.Q.1.> @ ;.7.0 l.V.h p.] `.[.[.].i.b.B.6 z F.B.",
"R > S v.8.W 7 S M.M.r 4 K D.nXvXvXvXvXvXvXvXvXP.m.Q.5.D k m.A.J : U j M o.Z G p.G X.D.5.@.m N.N ",
"Q e n 9.%.x @ A G.N.Q ; P H.nXvXvXvXvXvXvXvXvXP.7.0.N f m m.F., l.d.W K n , l 8.a 5.-.n j.;.K n ",
"D E 5.w.9.3.u A A.9.K 2.*.P.nXvXvXvXvXvXvXvXvXW.M 4 , m 0.F.M.S Z.S J H 4 1 j.&.@.K 0 P #.G.x e ",
":.E 8.-.9.:.e f.$.m l 5.*.Q.vXvXvXvXvXvXvXvXbXP.R 4 k 6.t.r.h k W.A.$., r h &.8.n A : z #.q.t + ",
"x.2 :.5.9.U 7 <.m m >.1.H.D.zXxXvXvXvXvXvXxXaXI.R.K.S.,.N.x.h 1.m.7.n h 8.F.-.K z y A u >.m.J 7 ",
"~ > 3.k ..9 U L 1.N.6.C.9.n.wXjXcXcXcXcXcXjXwXb.H.C.2.H L <.< L 6.m j %.m.H.-.: j.6.f.;.j.G.0 9 ",
"e 8 ! e H I c.^ r V.V.>.v.b.0XsX7X7X7X7X7XsX0Xb.&.6.S f.4 u 1 r P n g K m.B.6.l %.N.G.M.g J h H.",
"! u 8 w L #.M.J 9 G.:.v ..b.].+X=X*X*X*X=X+X] O.M $.h.S.~ ~ S ;.r z 6 j.#.H H 5 K &.G.#.f M.N.B.",
"~ C # F D 1.1.7.7.C.n f 6 B u.+XoX/.^./.@X(.u.;.j.$.M.E 7 u k 1.M %.Z.K.d.U 9 H H @.@.B M m.@.F.",
"i w C w x 7.F.8.N j.>.m f 0 ..).^.) ) ) /.'.o.S.A.C.S.<.e u r J m n M.,., S.c.I P j 5.B M M *.B.",
"e F ! F q C.H.&.f j.j v :.;...T & % O % ( T ..4 h P S.2.:.h.h.W f.U t 5 l Z.6.6.v N M #.6 , N b ",
"3.E 3.R R N.N.M $.l 1 q c q ;.s s G a d s X.j.1 W k.G.1.@.#.z.E 7 u 2 : @.m.M P >.5.K z.g , >...",
"k W :.#.1.-.*.R 2.4 > e D , :.J l z.L 6 r K.W k h.2.V.f f >.k.k.g.! i 0 4.m.5 f &.$.m.C.,.l Z.j.",
"r k J W R F.8.W t < L F e x h.M.V.k.2.c.r 7.n R M.z.;.g k S z.W z.x.x J W M j.z.G.C.9.8.;.l j 8.",
"S <.H j C.B.G.l @ U V < > ~ z.7.:.x.S <.v W K j H.K.A.W V.S.z.n 6.W k t $.R.z.6.V.j.n #.#.P N P."
};
