/* XPM */
static char *_a741ad10a5b4f10afb901e95dcb74b0gINbkTzYarsOJqFi[] = {
/* columns rows colors chars-per-pixel */
"48 48 245 2 ",
"   c #000000",
".  c #00000B",
"X  c #040A04",
"o  c #041A03",
"O  c #04061B",
"+  c #022401",
"@  c #0A2906",
"#  c #0A3906",
"$  c #133708",
"%  c #163712",
"&  c #0E0929",
"*  c #363335",
"=  c #0C4401",
"-  c #0D4705",
";  c #144406",
":  c #134C04",
">  c #13440A",
",  c #144B0A",
"<  c #1C4C0C",
"1  c #1A4A07",
"2  c #0B5803",
"3  c #125203",
"4  c #15510B",
"5  c #1C550C",
"6  c #1C5B0C",
"7  c #175907",
"8  c #1D4414",
"9  c #1B4B15",
"0  c #1E5312",
"q  c #1B5912",
"w  c #225C0C",
"e  c #21560C",
"r  c #234A16",
"t  c #235314",
"y  c #245C12",
"u  c #2A5C15",
"i  c #235C1C",
"p  c #2C5D1A",
"a  c #295419",
"s  c #315A1B",
"d  c #18690C",
"f  c #1C6712",
"g  c #187718",
"h  c #167213",
"j  c #25630C",
"k  c #27690C",
"l  c #246213",
"z  c #2B6414",
"x  c #2C6B14",
"c  c #25621B",
"v  c #2D651B",
"b  c #2D6B1B",
"n  c #276C15",
"m  c #316C15",
"M  c #31641B",
"N  c #336B1C",
"B  c #35691B",
"V  c #2D731B",
"C  c #2C7417",
"Z  c #317315",
"A  c #35731C",
"S  c #39751D",
"D  c #357B1C",
"F  c #3B7B1C",
"G  c #357917",
"H  c #32700E",
"J  c #15523C",
"K  c #2D5925",
"L  c #355A27",
"P  c #1A7C22",
"I  c #0D7035",
"U  c #2C6422",
"Y  c #296822",
"T  c #346C23",
"R  c #386828",
"E  c #347323",
"W  c #3A7424",
"Q  c #3D7B24",
"!  c #3D742A",
"~  c #3C7A2A",
"^  c #367727",
"/  c #3D6733",
"(  c #3B7934",
")  c #2B792C",
"_  c #417C25",
"`  c #42752B",
"'  c #427B2B",
"]  c #47772A",
"[  c #446D32",
"{  c #437D33",
"}  c #4A7A34",
"|  c #487033",
" . c #010D51",
".. c #000167",
"X. c #000079",
"o. c #3A3667",
"O. c #0F754B",
"+. c #0B746F",
"@. c #266A4C",
"#. c #645F64",
"$. c #69656A",
"%. c #3B831D",
"&. c #21871E",
"*. c #178A2E",
"=. c #3A8426",
"-. c #3B9631",
";. c #2C8D2E",
":. c #2FA131",
">. c #42851B",
",. c #428425",
"<. c #448A24",
"1. c #44832C",
"2. c #49852D",
"3. c #46892C",
"4. c #4B8C2D",
"5. c #498927",
"6. c #4C932C",
"7. c #479429",
"8. c #52942D",
"9. c #509D2C",
"0. c #468432",
"q. c #4C8434",
"w. c #4C8B33",
"e. c #4B8939",
"r. c #528D34",
"t. c #52853B",
"y. c #538C3C",
"u. c #57883A",
"i. c #4C9232",
"p. c #4C9938",
"a. c #539334",
"s. c #54933B",
"d. c #59943C",
"f. c #549A3C",
"g. c #5B9B3D",
"h. c #579935",
"j. c #538E2F",
"k. c #629B3D",
"l. c #59A239",
"z. c #49A33A",
"x. c #61A23C",
"c. c #14875A",
"v. c #158A4B",
"b. c #33934A",
"n. c #148863",
"m. c #2E9A61",
"M. c #4C8741",
"N. c #538B43",
"B. c #588A46",
"V. c #569241",
"C. c #5B9443",
"Z. c #5C9B43",
"A. c #5C9B47",
"S. c #54984D",
"D. c #629C4C",
"F. c #649849",
"G. c #679951",
"H. c #59A545",
"J. c #4BA84F",
"K. c #63A343",
"L. c #64A944",
"P. c #65A34B",
"I. c #6AA34C",
"U. c #6CAC4B",
"Y. c #68A848",
"T. c #6AB34B",
"R. c #6BA553",
"E. c #6DAB53",
"W. c #67A454",
"Q. c #72AC59",
"!. c #74B553",
"~. c #75B45C",
"^. c #7ABA59",
"/. c #6FAF50",
"(. c #79B763",
"). c #74AB66",
"_. c #75C45D",
"`. c #82B85A",
"'. c #82BE67",
"]. c #87C569",
"[. c #8ECC74",
"{. c #80C35A",
"}. c #FFF94D",
"|. c #0D0EAF",
" X c #043CBD",
".X c #0137A6",
"XX c #1F22A7",
"oX c #05569B",
"OX c #065D85",
"+X c #066989",
"@X c #0153A4",
"#X c #084CAD",
"$X c #2F61AD",
"%X c #777199",
"&X c #001BDB",
"*X c #000CD0",
"=X c #002BCB",
"-X c #0034C6",
";X c #0000EB",
":X c #010CEA",
">X c #0001E6",
",X c #0113E5",
"<X c #0000F6",
"1X c #0000FC",
"2X c #0A0BF4",
"3X c #1916F5",
"4X c #1212EA",
"5X c #261DF2",
"6X c #2825F6",
"7X c #3834F6",
"8X c #2928DA",
"9X c #403AF2",
"0X c #1B41D2",
"qX c #4444D1",
"wX c #4D49F0",
"eX c #776DF3",
"rX c #685AE1",
"tX c #807BFB",
"yX c #639E98",
"uX c #989D98",
"iX c #A8C882",
"pX c #ACDCA0",
"aX c #D2D4AF",
"sX c #B292D9",
"dX c #B1A8C6",
"fX c #8F88F8",
"gX c #A39BF0",
"hX c #B8AEFD",
"jX c #C7A3D5",
"kX c #D5B7CA",
"lX c #D3BBE8",
"zX c #F7CCCB",
"xX c #FFD5CB",
"cX c #FFDBD7",
"vX c #FFCED4",
"bX c #D6E4D4",
"nX c #D2C8FD",
"mX c #D4CFF8",
"MX c #F5DAEC",
"NX c #FAEDFD",
"BX c #F8ECF9",
"VX c #FFF4FE",
"CX c #FFFBFF",
"ZX c #F5E3F5",
"AX c #C3DDC1",
/* pixels */
"v = v W ~ w._ Q V n r.w.T z Q 2.w.S d.<.6.3.1 0 > 0 T W _ I.^.d.w.E.A 3.d.3.1.5 4 v S 3.l E L.=.",
"1 ' ' m ~ S x b l W x N y = b y.P.w.6 C %.7               p.k.w m K.].~.V.{ 4 c R T N _ 5 Q h.k ",
"< I.q.A N N v = > ! 5 5 z e W z w.y.6 k d =               q 9.4.H `.pX).a > K K , u s.a.E 2.h.i.",
"` ] z z v V.q.R ! v : y (.].C.= n 3.w.h # X               X 4 N u.G.[ / % o 8 L R ` p.i.Z.,.4.H.",
"t ; t = u t.` r.g.w.z E [.[.w.3 b Q e.d X                   # u R 8 + % $ + $ s F.A =.p.0.b w.d.",
"r 9 p T y.5 v _ K.I.{ ! w.Z.s.Z.Q 6 2 2                     @ ~ Z.} < 1 a } F.B.y.n f ~ { > N d.",
"B.8 N a.g.6 - v d.~ T T W j 3.d.n 7 d X                       o T.I.D.C.` R G.q.7 =.d l V.N.R W ",
"F.u ' 3.,.x 5 6 0.b N.v ' ,.A b W ^ f                           p.[.C.W ! # { ( l 7.9.%.K.(.N = ",
"F.y W Z %.^ y l 0.c 0 ; ' S x x ~ b 2                           =.(.! > 9 # ( E n %.l.%.F 2.y.N.",
"k.; p k <.Q y x x v 0 e W j G F _ 5 q                           ( J., p # , 0.K.4.F l.5.b 0.].'.",
"] < ' i.i.y.M W 3.W < u W k %.4.Q 1.d                            .+.E _ E { ~ w.<.h.{.x.3 1.^.h.",
"T > 1.l.i.p # { (.D.y 1 W d.!.L.3.l.h                           ..|.oX+.*.f E w.k l.T.,.b 3.8.S ",
"W 5 i.h.F s # ! ].I.z e F d.K.f.Z.H.g                           ..>X<X&X+Xq w.Q S h.F Q Z.r.m T ",
"` y.L.l.a.} 8 e.Y.Q ' d.>.E.E 1.y.^ d                           ..;X<X<X#Xc Z.3.Q y 3 ' E.D.t # ",
"t.W h.L.Z.` t V.,.w 1.r.T.E.4 ` u c f                           ..;X<X<X&X@X:.,.c i = ^ g.k.t + ",
"} < r.4.e.i R ' ,.a.s.K.K.A T u , P J &                     . & |.;X<X<X<X<Xv.j ( U U T F.K.i # ",
"p a } z ^ i M.' d.P.d.!.d.Z.N.i h  XqXo.X                   O XX4X<X<X<X<X<X*.6 H.P.V.e.R.q.w ~ ",
"1 L a t E e.D.v v ~.d.r.K.H.n.oX X,X4XqX%X#.* X       X * $.%X8X2X<X<X<X=Xm.-.b w.Y.].V.l N Z.^.",
"| r 8 L ! C.F.' y.~.z j S -. X:X<X<X<X9XgXdXuX$.#.#.#.$.uXdXgX6X<X<X<X<X@XY l 6 Q g.g.x Q Y.U.L.",
"| r r K ! d.a.d.Z.Z.Q w 3 g &X<X<X<X<X6XtXnXVXVXCXCXCXVXNXnXeX3X<X<X}.}.+.( Y ^ E Q <.k a.6.<.^.",
"t L K a B /.^.<.D d.,.A *.#X:X<X<X<X<X2X6X9XfXZXNXNXNXmXtX7X3X2X}.}.}.+XP ).W.w.b A <.Z Z k 6.f.",
"s | [ U A ].U.D F w.5 7.yXrX4X<X<X<X<X<X<X<X7XtXfXfXfXeX6X<X}.}.}.}.wX*.w.W.w.w.S S Q 3.- 3 Q n ",
"1.: 5 ' Q w.Q Q n n d.aXvXjX6X<X<X<X<X<X<X<X<X<X<X<X<X<X}.}.}.}.3XwXnXz.w.1.s.z , E Q <.W l H.7.",
"y y T N ~ 1.b Q E -.iXzXzXjX5X<X<X<X<X<X<X<X<X<X<X<X}.}.}.}.}.eXhXnXBX_.Z.V.l y U T x S v w L.G ",
"< u.q.N N S v 1 , H.xXxXzXsX5X<X<X<X<X<X<X<X<X<X<X}.}.}.}.<X6XhXNXCXVX[.! i , U , u W d.N _ a.4.",
"z q.' M v W t.u U =.zXkXsXeX3X<X<X<X<X<X<X<X<X<X}.}.}.<X3X7XeXmXVXVXVX~.K + r / R R V.4.E.3.F !.",
"R < e : : N.t.' s.z.dXwX6X3X<X<X<X<X<X<X<X<X}.}.}.}.2X3XeXhXmXNXVXBXbX( 8 + @ a [ ' D i.=.W 2.d.",
"> $ R 5 q.M v _ h.J.qX2X<X<X<X<X<X<X<X<X}.}.}.}.1XwXfXgXnXNXVXVXVXAXB., r a [ | R.,.f 3.^ 0 v C.",
"B.8 U W P.N 1 y w.c.<X<X<X<X<X<X<X<X<X}.}.}.}.0X7XhXCXCXCXVXVXVXNXpXt.y.` | G.D.6 =.2 V ^ ! t ' ",
"Q.t ! 3.h.x q : s.v.<X<X<X<X<X<X<X<X<X}.}.<X:X0XyXpXbXBXNXNXNXZXMXaXJ.T y.= v D.6 i.7.D s.'.D.6 ",
"I.M } D <.=.l : y.c.1X<X<X<X<X<X<X<X<X}.1X,X+Xb.) ~ (.aXcXcXcXcXvXkXyXg R # U 0.7 D 9.>.H a.v b ",
"`.1 y j 6.<.6 z S *.#X:X<X<X<X<X<X<X<X&XoX+.:.6 { ' =.iXxXxXzXjXsXeX5XO.> # b A.3.G h.6.Q 1.^.[.",
"I.< ` =.=.s.` z Q E P -X<X<X<X<X<X<X<XOX&.J.S.- R.[.d.uXkXkXjXwX3X2X1Xc.q { ~ 3.a.<.!.T.7 z !.U.",
"] ; T H.g.' 0 U P.P.y #X<X1X<X<X1X1X:X+.Q V n ' F.[.b.$X9X9X7X2X<X<X1Xc.=.b E s.Z 6.^.8.,.S Y.G ",
"] t A h.3.M # v ~.Y.1.I +.oX<X1X,X+Xn.*.G k <.a.h.j.O.=X1X<X<X<X<X<X1Xc.V 3 b g.f a.8.Z Z.2.Q A ",
"W ] a.l.d.t.a U !.d.Q a.=.b.@X-X+X-.) V Q 3.<.x.S 5 O.=X1X<X<X<X<X<X1Xc.q 4 Z.4.,.W w Q 1.~.M t ",
"q.] g.i.h.q.t N.4.F N s.<.[.I @.) U z W.(.d.a.8._ 5 O.=X1X<X<X<X<X<X1XO.l z 3.g.A T = c 1.k.u + ",
"F.< q.i.f.( 0 e.S F w.r.!.d.6 v t , x L.Y.1.l g.{.(.m.=X1X<X<X<X<X<X1Xc.f.!.8.Q c i U u w.K.W 9 ",
"} ; u.v =.q ( ! r.I.s./.h.a.e.U 0 0 Q 8.8.z = d.^.E.b..X;X<X<X<X<X;X>Xv.L.!.8.= A.s.N.0.A.~.w 0 ",
"a 8 [ 0 E ^ G.{ y I.R.w.K.I.~ v i T Z x.h.c : Z.4.s.V J |.1X1X1X1X*X .&.L./.s.b 3.Y.~.W.l W z ^.",
"[ a 8 r ! 1.I.W 0 ~.q.m _ Y.l ~ [.Q._ Z.D.y W V.F 2.e.9  .X.X.X.X...O -.1.E E 7 ^ w.~.3.k P.U./.",
"} L % / R r.r.d.d.E.A j 7 j ' y.q.W v y.l ! 0.0.Z.2.f.# . . . . . .   J.M.( q E E 1.<.Z F K.<.!.",
"s r K r M d.!.g.Z Z.w.S j w Q D.0.y.~ E b A.{ Q./.E.H.#               ;., ).W.^ ~ x a.H F G <.T.",
"t / [ R e E.^.4.j Z.x m q.q.' w.y.V.N.4 v ' ' 5 z ~ E.-.#         @ d 6 b W.s.s.V C D 1.7 3 V V ",
"t.! t.] _ Y.Y.F 2.b , e B e 0.b ' D.! 5 ' D.A., ' V.~.s.d X       > 1 = ,.K.F Q w.h.Q D.l : w.=.",
"v ' q.1.r.8.5._ y.5 ; t R 1 q.W b D.W 5 y (.' v C.y.R.k d @     o f p w w.K.7 j 4.3.K.E.e.b R.Z.",
"y v Q 1._ !.g.' u > / R t M C.P.R.C.y.G.y d.A _ P.D.0.l n C p.=.f.Z.M W ' S Z.D.~.E.d.g.0.b b d.",
"T e.E x U.U.~.b # ( K > ; { D.d.q.F.T q.N ' Q x ^.(.Q.' R.Q.D.A d.' v y 2.'.D.s.R.A.A 3.1.^ b _."
};
