/* XPM */
static char *result[] = {
/* columns rows colors chars-per-pixel */
"48 48 247 2 ",
"   c #032501",
".  c #0A3905",
"X  c #133909",
"o  c #183913",
"O  c #001D00",
"+  c #0D4301",
"@  c #0C4803",
"#  c #134C04",
"$  c #13450B",
"%  c #144B09",
"&  c #1D4C0C",
"*  c #174506",
"=  c #135304",
"-  c #1C540C",
";  c #1C5C0C",
":  c #185507",
">  c #1D4D13",
",  c #1C4714",
"<  c #1D5512",
"1  c #0D5801",
"2  c #225C0C",
"3  c #21580B",
"4  c #234A16",
"5  c #225314",
"6  c #245C12",
"7  c #2A5C15",
"8  c #245C1B",
"9  c #2C5D1B",
"0  c #2A5419",
"q  c #315A1B",
"w  c #1D650E",
"e  c #25630D",
"r  c #286A0D",
"t  c #246213",
"y  c #2B6414",
"u  c #2C6B14",
"i  c #26621B",
"p  c #2D651B",
"a  c #2D6B1B",
"s  c #266B12",
"d  c #31641B",
"f  c #336C1C",
"g  c #336C18",
"h  c #2E7318",
"j  c #34731C",
"k  c #39751D",
"l  c #367A1B",
"z  c #3B7B1C",
"x  c #337615",
"c  c #32700E",
"v  c #2B5924",
"b  c #355A27",
"n  c #2B6623",
"m  c #346C23",
"M  c #386827",
"N  c #347223",
"B  c #3A7424",
"V  c #3D7B24",
"C  c #3D742A",
"Z  c #3C7A2A",
"A  c #367627",
"S  c #3D7733",
"D  c #3D6733",
"F  c #427C25",
"G  c #42752B",
"H  c #427B2B",
"J  c #47782B",
"K  c #446D32",
"L  c #437D33",
"P  c #4A7D34",
"I  c #497837",
"U  c #487033",
"Y  c #BD3D03",
"T  c #C53F0C",
"R  c #C83F14",
"E  c #BB4806",
"W  c #BD5603",
"Q  c #B86407",
"!  c #B66534",
"~  c #BF5622",
"^  c #C44604",
"/  c #C85506",
"(  c #D55B07",
")  c #C8571D",
"_  c #D35A1A",
"`  c #C54B18",
"'  c #E25E0C",
"]  c #C86308",
"[  c #D56305",
"{  c #D2650B",
"}  c #DE630C",
"|  c #DC6A08",
" . c #D86905",
".. c #DE740B",
"X. c #DC7A0B",
"o. c #D97A08",
"O. c #CD6815",
"+. c #DC7A15",
"@. c #D06B11",
"#. c #E16309",
"$. c #E1740B",
"%. c #E47B0D",
"&. c #E47D11",
"*. c #CB5C2A",
"=. c #C85825",
"-. c #C95325",
";. c #CC6426",
":. c #CE632A",
">. c #C57A52",
",. c #3C831C",
"<. c #3C8325",
"1. c #42851B",
"2. c #428324",
"3. c #44832B",
"4. c #49862C",
"5. c #46892C",
"6. c #4B8C2D",
"7. c #448A25",
"8. c #4B932B",
"9. c #51932D",
"0. c #509D2C",
"q. c #468432",
"w. c #4C8433",
"e. c #4C8B33",
"r. c #4B8839",
"t. c #528D35",
"y. c #548D3B",
"u. c #54863B",
"i. c #4C9232",
"p. c #4E9638",
"a. c #539334",
"s. c #55933B",
"d. c #59943C",
"f. c #5B9B3D",
"g. c #569937",
"h. c #528A2C",
"j. c #639A3E",
"k. c #5AA239",
"l. c #64A13E",
"z. c #4D8941",
"x. c #558A44",
"c. c #5A9443",
"v. c #5C9B43",
"b. c #599644",
"n. c #5D8C52",
"m. c #619B44",
"M. c #639D4C",
"N. c #65964C",
"B. c #639B54",
"V. c #6A9650",
"C. c #5DA342",
"Z. c #63A243",
"A. c #65A34A",
"S. c #6DAC4B",
"D. c #68A648",
"F. c #6DB14B",
"G. c #73B74E",
"H. c #6AA453",
"J. c #6DAB53",
"K. c #67A455",
"L. c #73AB58",
"P. c #74B552",
"I. c #78B85A",
"U. c #70A94D",
"Y. c #7AB664",
"T. c #79AD68",
"R. c #7BC05A",
"E. c #DE8116",
"W. c #D28F0D",
"Q. c #E48314",
"!. c #E68719",
"~. c #F19E1B",
"^. c #E89317",
"/. c #DBAC0F",
"(. c #ECA51C",
"). c #EAA91B",
"_. c #EEAE1C",
"`. c #DE8222",
"'. c #CE8D25",
"]. c #E38A26",
"[. c #EE9C2B",
"{. c #EAA726",
"}. c #ECB725",
"|. c #F2B928",
" X c #EAA437",
".X c #F1AA33",
"XX c #EEC328",
"oX c #F3CC31",
"OX c #82B85A",
"+X c #B99F7D",
"@X c #82BD6A",
"#X c #BBA279",
"$X c #CA8756",
"%X c #CF9658",
"&X c #E69A4E",
"*X c #EAA859",
"=X c #ECAD4D",
"-X c #CA986E",
";X c #DCA96A",
":X c #C5A176",
">X c #D0AC6E",
",X c #EBA766",
"<X c #EDAB74",
"1X c #EEB371",
"2X c #DCA55F",
"3X c #82C45A",
"4X c #86C569",
"5X c #8CC675",
"6X c #94CF78",
"7X c #A4DF7B",
"8X c #F0DD7D",
"9X c #BCA687",
"0X c #BCAA91",
"qX c #BA9F84",
"wX c #C3AE94",
"eX c #C6B49E",
"rX c #C5B196",
"tX c #D1AE91",
"yX c #EDB78A",
"uX c #F3B489",
"iX c #EBBE97",
"pX c #F3BA95",
"aX c #F0AF84",
"sX c #CAB9A7",
"dX c #CFBCB0",
"fX c #A8DE89",
"gX c #F3CE90",
"hX c #D2C6B9",
"jX c #CCC3B0",
"kX c #EAC8A9",
"lX c #EED1B6",
"zX c #EFE4B9",
"xX c #F5E399",
"cX c #D8CBC4",
"vX c #DCD3CB",
"bX c #DCD0C6",
"nX c #DFD2D1",
"mX c #E2DAD3",
"MX c #E4DEDA",
"NX c #E9DBDA",
"BX c #E7D7CF",
"VX c #E9E5DD",
"CX c #F4E2D1",
"ZX c #EBE6E3",
"AX c #ECE9E5",
"SX c #E8E7E6",
"DX c #F1E9E3",
/* pixels */
"p + g B V w.2.Z a s t.t.m 7 V 4.e.k s.2.8.5.# < $ 5 M B G U.I.d.h.U.g 4.d.e.3.- % i l 4.7 N D.<.",
"# H F g H k u a i C u f 6 + a t.A.e.; h z h B % * B.@X# F 7Xj.2 c U.@XI.x.L : v S n j F - V 0.r ",
"- V.t.g d f y + % C 3 - y 6 B y r.y.; r oXgXpX X+.+.O.Q j.U.m.h.g OXfXL.8 X v n % 9 y.a.j 5.g.a.",
"G J y 7 d c.w.M M d # 6 Y.4Xc.@ s 5.q.s .XgXyX!.o.@.;.` E.g d k x.V.U D o O , b M G p.a.v.2.6.C.",
"5 * 6 X 7 u.G u.j.e.y N 5X6Xe.= n V r.:  XgXaX!.| O.:.~ ] . 9 d M ,   o o O X q n.f <.p.<.a e.s.",
"0 , 9 m d.3 y F Z.A.L C r.v.s.v.Z w = % [.iX<X].o.@.;.~ W % P V.V.I & * 0 I V.c.d.u w <.<.% f s.",
"x.o f a.v.; + p d.Z n N B e 5.d.u : p |. XpX<X!...[ ;.~ E C b.5X7XV.V.c.J K B.e.: <.w w n.z.A C ",
"N.0 H 5.2.s - ; q.a x.p F <.l a A A Z |. XiX<X!...{ ;.~ E L.P.5.@X5Xd.k G   L S t 8.0.,.C.Y.n + ",
"m.5 G c ,.A w 6 q.i 5 + H k c u Z p % }.=XiX,XQ.X.[ ;.! E /.M.; N.T.S $ > . S A u ,.k.,.z 6.y.x.",
"j.* 7 r 5.V 6 u u p 5 3 B e x z H > n _.=XiX*XE...[ ;.*.E o.a.f @XB.$ v . % <.C.7.,.k.7.g 5.4X4X",
"P - J 6.i.y.d B q.B & 7 B r <.6.V q.N *XiXkXgX>X;X-X-X$X! Q w.a I r.k F S q.Z r.7.g.3Xl.= 3.I.g.",
"f $ <.C.i.9 . S Y.m.7 & B s.G.D.5.k.gXDXSXZXVXmXvXhXjX0XwX#Xm.6 v L F <.A ; N e.r k.S.2.u 7.9.j ",
"M 5 8.k.,.9 . C 4XD.y 3 V d.Z.f.C.C.CXAXAXAXVXmXcXcXjXsX9XqX4.v B.S L H ; : e.V z a.z z c.t.g m ",
"J y.D.k.i.J , r.D.V H d.1.J.N 3.x.Z DXAXAXAXVXmXvXhXsXeX9X+X=Xq.H.F B ; % t v.5.2.6 = <.J.A.5 X ",
"w.G a.l.C.U < b.7.2 3.9.F.J.: G 7 s AXAXSXSXMXmXcXhXjX0X0X#X>X8.6XD.f # m 2.9.7.i 8 . N f.j.>   ",
"I & u.6.p.< M S 4.a.s.j.l.k N 8 $ ; DXAXSXSXMXmXcXhXjXeX0X#X:XC.f.3.c F G.3X2.w S n n m m.Z.9 $ ",
"q 0 P p N v r.H d.A.c.P.d.v.x.5 % 6 VXAXZXZXNXmXbXhXdXsX0X#X:XC <.a h 9.G.G.N ; C.A.b.r.K.e.2 Z ",
", b q 5 N r.B.p y L.d.t.Z.A.a i r.zXAXDXDXZXNXNXnXcXdXsX0X#X#XA N i : <.k.Z.<.h r.D.Y.b.e f v.I.",
"K 4 o b C b.m.G u.L.y e k e.7 N.T.xXgXlXlXkX;X;X%X%X$X$X$X>.$XZ w j h K.x.n w w <.f.C.s <.D.F.C.",
"U 4 4 v C d.g.s.m.v.z 2 # e q.c.P }._.,XpX<X!.&...| { :.*.` E {.l g.Y.B.S S n A j <.5.r 9.8.8.R.",
"0 b b 0 f U.I.<.l s.2.j p j t.m.3.}.(.1XpX<X!.Q.X. .{ :.*.-.E o.4.j b.8 i Y.K.r.h j 2.x c r 8.p.",
"q U K d g 4XS.z V e.- g w.C B 3.y.).{.<XyX,XQ.&... .{ ;.*.~ E ] I 8 < : r.D.e.e.l z V q.@ 1 ,.s ",
"H # - G Z e.V V s u 4.t.f 6 B 3.t._.[.1XyX,X!.&.X. .{ ;.*.=.E / q.I.r.h i.<.s.t @ C B 2.B t C.8.",
"2 6 j g H 3.c Z N N f F j - a y.XX(. XuXyX,X!.%... .{ ;.*.=.E / e a.C.J.b.b.t 6 n n u k p 2 D.l ",
"& y.t.g f f g # $ P p 2 - + a j |.(. XuXyX,X!.%.X.| { ;.:.=.E ^ _.m.6X@XK 0 4 b % 5 Z v.f V a.6.",
"y w.J d d B w.7 M - 6 % V.H.M.; _.(. XyXuX&X!.Q.X.{ } _ _ =.` ^ W.L.L.n.v   4 D M p b.<.L.5.z P.",
"K & 3 # * x.u.G y.h.6 : I.5XJ.; 1X1XgXkXkXtX;X2X%X&X>.$X>.>.! ! '.b . 4 o O   0 D J ,.i.<.A 4.f.",
"X X M & w.d d F g.J.c.A M.L.f.Z VXVXAXAXVXVXmXvXvXcXhXsXrX0X9X#X>XI X X 4 q U P H.2.w q.Z < a v.",
"n., M B A.f # 6 e.c.a < V w ,.xXAXVXAXAXSXMXmXnXBXhXhXsXeXwX#X#X:XL.u.u.G U V.A.5 <.1 a A C 5 q.",
"H.5 B 5.a.u ; # p.2 x.L V 8.,.VXAXVXAXAXSXMXmXnXbXhXhXsXeXwX9X#X#X6Xb.B u.+ p B.w i.<.l s.@Xv.5 ",
"V.d P k 7.<.y # e.a 6 # f e.r VXAXAXAXSXVXmXVXvXbXhXhXsXeXwX9X#X#X5XY.% M . n q.1 ,.0.,.c a.p a ",
"OX& 6 e i.<.; y N 2 v * B j ,.AXAXAXVXAXVXVXvXvXbXcXhXdXeXwX9X9X#X>X> > X . m C.5.x k.0.z 3.I.5X",
"U.& J F 7.s.G 7 V N 9 * P # c ZXDXZXZXZXNXMXmXbXbXcXhXdXsXwXwXqXqX>X6 y.; I Z q.p.7.G.F.: y P.S.",
"F X g l.k.H & m C.A.6 3 k F 8XSXDXZXZXZXVXmXmXBXbXhXjXdXsXrXqX:X:X-Xu z <.a N p.c 8.I.9.1.k S.x ",
"q.5 j g.4.d . n Y.A.q.+ k h.gXzXzXCXCXCXCXlXlXkXkXkXiXtXtXtX:X-X%X%XH V j # a f.; a.8.h m.5.z k ",
"B H p.k.g.u.v n L.s.V u.1.g.|.~.~.*XpXaX,X].Q.%.| | [ { _ _ -.` T W B m - : v.6.2.B e V 4.L.d 5 ",
"w.J j.9.a.q.> z.6.z f g.2.6X_.(.~.,XyXuX,X].&.$... .[ [ _ *.=.` R ^ W.= ; t 6.f.N n @ i 3.j.9   ",
"N.& w.a.g.S > r.k x e.y.P.g._.~.[.<XpXuX*X!.&.%.$. .[ ( _ *.*.` ^ ^ o.r f.P.8.V i 8 n i e.Z.B > ",
"I X u.u <.< S C y.U.y.J.a.a._.~.[.<XuXpX&X!.&.%.$. .[ ( _ *.=.) R ^  .7.D.G.0.@ v.z.z.q.v.I.2 5 ",
"0 4 U 4 A C B.S 2 U.U.t.Z.U._.~.[.aXuXuX&X&.&.$... . .( _ *.*.) T Y ] oXZ.G.s.h 5.D.L.H.6 B s Y.",
"K 0 , 4 C P H.C 5 I.w.g F D.(.~. XaXaXaX&X&.%.$.$. .[ ( _ *.*.` Y Y / }.<.A N : V i.I.5.r D.S.F.",
"I b o b M t.a.m.d.H.j 7 : e (.~. XuXyXaX&X!.%.$.$.#. .( _ -.*.-.Y Y / ).z.S ; N N <.<.x ,.Z.2.P.",
"q 4 v 4 d d.oXoXXXXXXXXX|.}.(.~.=XyXpX<X&X&.%.$.$.| | ( _ _ -.-.E Y ^ W././././.}.s p.c z l 7.F.",
"4 K K M 3 H.oXXX|.|.|.|.|.}.)..X=X=X1X1X*X=X[.[.~.^.!.!.].].].`.+.`.W.).{.}.)._.).}.XX<.: 1 h h ",
"u.G w.F F U.). X1X,X&X].Q.E.E.Q.].&.+.E.o.o.o.%.&.&.+.+.&.X.X.X.+.+.+.X.X.| { { ] E o.C.t = q.<.",
"d J w.J t.9.(.^.^.Q.o.| | | |  .#.} #.#.| #.#.| ( ' ' ' ' ( ' ' ' ' ' ' ( ( ( ` E E Q J.t.a K.v.",
"; a V 3.F P.f.Z 7 $ D M & g d.M.H.c.y.B.6 y.j G A.A.w.7 p m B.Z M.N.d B H k b.C.Y.J.s.v.q.a a f.",
"N r.N y S.S.I.p $ K v $ * P M.d.u.b.M w.g H G s I.Y.L.Z K.L.M.N d.H y 7 4.@XM.s.K.C.j 5.3.A h R."
};
