/* XPM */
static char *_27a2eb4993e4bd8bd86ca188503fd761gFF4GB5Ooz3ooIN[] = {
/* columns rows colors chars-per-pixel */
"48 48 236 2 ",
"   c #000000",
".  c #001D00",
"X  c #042500",
"o  c #0E3C06",
"O  c #143607",
"+  c #163712",
"@  c #2F372C",
"#  c #0C4501",
"$  c #0C4604",
"%  c #144C05",
"&  c #13450B",
"*  c #164B0A",
"=  c #194808",
"-  c #16510B",
";  c #1D550B",
":  c #1D5C0B",
">  c #175605",
",  c #1E4514",
"<  c #1D4D13",
"1  c #1A4714",
"2  c #1D5212",
"3  c #1A5714",
"4  c #225C0B",
"5  c #21560D",
"6  c #224A17",
"7  c #225513",
"8  c #235C13",
"9  c #2A5D15",
"0  c #265E1B",
"q  c #2A5D1B",
"w  c #2A5519",
"e  c #315B1C",
"r  c #1B670D",
"t  c #24620C",
"y  c #27660C",
"u  c #246213",
"i  c #2B6414",
"p  c #2C6B14",
"a  c #2C651A",
"s  c #2D6A1A",
"d  c #266715",
"f  c #326C15",
"g  c #31631B",
"h  c #336C1B",
"j  c #386D1E",
"k  c #2F751A",
"l  c #317214",
"z  c #33721C",
"x  c #38741E",
"c  c #3B7B1D",
"v  c #37791A",
"b  c #326F0F",
"n  c #2B5C25",
"m  c #345A26",
"M  c #3E5535",
"N  c #2E6722",
"B  c #346C22",
"V  c #396C25",
"C  c #3D6C2A",
"Z  c #39642A",
"A  c #347323",
"S  c #3A7424",
"D  c #3C7B25",
"F  c #3D752A",
"G  c #3D7A29",
"H  c #34762B",
"J  c #3D6834",
"K  c #3D7635",
"L  c #2D7324",
"P  c #407B1D",
"I  c #425539",
"U  c #427C24",
"Y  c #43752D",
"T  c #427C2B",
"R  c #437828",
"E  c #446D33",
"W  c #4A693C",
"Q  c #447D32",
"!  c #497D34",
"~  c #4D7C3A",
"^  c #477632",
"/  c #4C7435",
"(  c #585858",
")  c #4C5648",
"_  c #4D6742",
"`  c #5D7C4E",
"'  c #527C42",
"]  c #5D7355",
"[  c #617E54",
"{  c #7A7A7A",
"}  c #3B8325",
"|  c #438425",
" . c #44842B",
".. c #49852D",
"X. c #47882E",
"o. c #4A8B2D",
"O. c #468825",
"+. c #468232",
"@. c #4B8534",
"#. c #4C8A33",
"$. c #4C843A",
"%. c #4E8D3A",
"&. c #478935",
"*. c #528D35",
"=. c #53853D",
"-. c #528C3C",
";. c #598B3C",
":. c #4F9537",
">. c #539236",
",. c #54933B",
"<. c #59953D",
"1. c #5B9A3C",
"2. c #579A39",
"3. c #51902E",
"4. c #609F3E",
"5. c #63A13D",
"6. c #4E8B42",
"7. c #558C42",
"8. c #588846",
"9. c #569241",
"0. c #5A9343",
"q. c #5D9C44",
"w. c #5D9C49",
"e. c #5B9448",
"r. c #5F9E55",
"t. c #628D4D",
"y. c #619C46",
"u. c #639C4C",
"i. c #65964C",
"p. c #668758",
"a. c #6A9D53",
"s. c #6C925C",
"d. c #669954",
"f. c #719B5B",
"g. c #5EA341",
"h. c #63A344",
"j. c #65A24A",
"k. c #69A44D",
"l. c #6BAB4D",
"z. c #69A846",
"x. c #70B24F",
"c. c #6BA453",
"v. c #6DAB52",
"b. c #6BA556",
"n. c #70AD55",
"m. c #72A45D",
"M. c #72AC5A",
"N. c #70A754",
"B. c #72B452",
"V. c #76B25B",
"C. c #7AB35E",
"Z. c #7ABB5B",
"A. c #76B857",
"S. c #6CAD4D",
"D. c #749963",
"F. c #769469",
"G. c #75A461",
"H. c #79A465",
"J. c #77AA60",
"K. c #7AAC64",
"L. c #7DA56C",
"P. c #7CB563",
"I. c #7DBB67",
"U. c #6AA961",
"Y. c #7BC05A",
"T. c #81B85C",
"R. c #839979",
"E. c #83B96B",
"W. c #85AB75",
"Q. c #8AA67D",
"!. c #8BAD7C",
"~. c #85A677",
"^. c #85B272",
"/. c #8DB27D",
"(. c #8BB976",
"). c #90BB7D",
"_. c #84C05F",
"`. c #86C26A",
"'. c #8CC575",
"]. c #91C37A",
"[. c #93D07A",
"{. c #A4DF7B",
"}. c #878787",
"|. c #8C8C8C",
" X c #909090",
".X c #8EA783",
"XX c #92AF85",
"oX c #95AD8B",
"OX c #96A98D",
"+X c #8FB184",
"@X c #95BD83",
"#X c #99B28E",
"$X c #9BBE8B",
"%X c #94B587",
"&X c #9BAF93",
"*X c #9CA997",
"=X c #9CB193",
"-X c #9DBC91",
";X c #A1AE9C",
":X c #A1BA96",
">X c #A4BA9A",
",X c #A3B39C",
"<X c #A7B4A0",
"1X c #AABBA2",
"2X c #AFBCA9",
"3X c #ABB6A7",
"4X c #B3BEAD",
"5X c #B6BDB2",
"6X c #BCBCBC",
"7X c #B5B8B4",
"8X c #A5AFA1",
"9X c #95C182",
"0X c #9AC288",
"qX c #9FD882",
"wX c #A0C192",
"eX c #A3DB83",
"rX c #ACE08E",
"tX c #B6C1B2",
"yX c #BAC2B6",
"uX c #BEC4BB",
"iX c #C1C6BE",
"pX c #C2CBBF",
"aX c #C5CAC3",
"sX c #C9CBC8",
"dX c #CED2CC",
"fX c #D0D3CE",
"gX c #D2D4D2",
"hX c #DCDEDB",
"jX c #D7D9D5",
"kX c #DFE1DE",
"lX c #E4E5E3",
"zX c #E7E8E6",
"xX c #EDEDED",
"cX c #E8E9E7",
"vX c #F5F5F5",
"bX c #FAFAFA",
/* pixels */
"a # a S G @.U D z d *.%.B i G ..#.x <.| 3.X.* 2 & 2 B S R k.C.<.#.v.z  .<.#. .; - a x  .u A z.} ",
"* T R f G x p s u S p h 8 # s *.j.#.: k } v S * * i.E.*  .{.5.4 f h.`.P.9.! - a H N h U ; G 2.y ",
"; k.@.j h h a # & F ; ; i 5 S d &.%.: d p | V.@.F E.qXj.5.h.h.3.b T.rXG.w & n n * 9 ,.>.A ..2.#.",
"R R i i a 9.$.V C a % 8 I.`.0.# d  .&.u t #.y.*.h V.h._.v.h g j ;.a.E J + . , m Z Y :.:.q.| o.g.",
"7 & 7 # 9 =.Y *.1.#.i A '.[.%.% s D &.> % t D j.t l P h.g o q g Z 6 X + O X O e t.x } :.+.s #.,.",
"6 , q B ;.; a U h.k.Q F %.q.>.q.D : % * * % G w.d # a 7 < & ! a.i./ = = w ~ i.0.-.p r G Q & h ,.",
"8.1 h >.1.: $ a <.G B B S t X.<.d > d 0 - $ H L - 3 0 * N F 0.'.eXc.u.0.Y C a.@.: } r u 9.7.B S ",
"{ { { { { { { { { { { { { { { { { { { { { { { { { { { { { { { { { { { { { { { { { { { { { { { { ",
"                                                                                                ",
") }.|.|.|.|.|.|.|.|.|.|.|.|.|.|.|.|.|.|.|.|.|.|.|.|.|.|.|.|.|.|.|.|.|.|.|.|.|.|.|.|.|.|.|. X{ @ ",
"}.vXbXvXvXvXvXvXvXvXvXvXvXvXvXvXvXvXvXvXvXvXvXvXvXvXvXvXvXvXvXvXvXvXvXvXvXvXvXvXvXvXvXvXvXbXhX( ",
"}.bX                                                                                        lX( ",
"}.bX  bXbXbXbXbXbXbXbXbXbXbXbXbXbXbXbXbXbXbXbXzXbXbXbXbXbXbXbXbXbXbXbXbXbXbXbXbXbXbXbXbXbX  xX( ",
"}.bX  bX5X!.+X!.6XbXbXvX/.!.W./.(.6XbXbXvX/.^.wX-X$X>XbXbXbX>X@X%X-X%X-XbXbXbX:X$X$X$XaXbX  xX( ",
"}.bX  bX&X@.0 7.xXbXbXbX/.G p <.n.dXbXbXbXXX1.:.w.q.1XbXbXbX>Xv.,.,. .>XbXbXbX4Xn.n.n.4XbX  xX( ",
"}.bX  bX&Xk.u.M bXaX&XbXvXt.T j.] bXuX&XbXjX%.,.%.8.bXgX1XdXbXa. .X.i.bXvX:XkXbX[ n.n.4XbX  xX( ",
"}.bX  bXgXoX5XbX_ M.I.oXbXvX>XyXbXI P.I.XXbXjX+X=XbXbXe.+.m.bXbXF.s.bXbXf.v.J.bXbX1X>XlXbX  xX( ",
"}.bX  bXbXbXbX<XM.q.%.k.:XbXbXbXuXV.'.M.j.%XbXbXbXiXm.a a %.m.xXbXbXaXG.0.F *.J.iXbXbXbXbX  xX( ",
"}.bX  bXbXbXbXoXj.%.7 <.@XbXbXbX>XN.~ ' e.E.bXbXbX3Xq.h +.c.n.6XbXbXOXj.=.9 +.v.2XbXbXbXbX  xX( ",
"}.bX  bXbXbXbXjXm.j.u.c.5XbXvXbXcXs.^ -.k.,XbXbXbXvXs.,.<.n.s.bXbXvXxXs.u.0.y.H.xXbXbXbXbX  xX( ",
"}.bX  bX<X(.oXbXxX/.(.5XbXuX@X:XvXvX%X^.,XbXuX/.+XjXbX%XE.#XbXaXH.J.@ bX.XM.W.vXlX$X$XdXbX  xX( ",
"}.bX  bXXXy.N.&XbXbXlXbX5Xc.u.k.D.vXbXxXbXtXu.0.v.G.fXbXvXbXjXm.k.j.J.gXbXgXbXgXm.h.k.1XbX  xX( ",
"}.bX  bX#XC C ^.<XbXbXbX^.C m 7.v.#XbXbXbX(.+.s V.l.%XbXbXbX/.j.,.j.k.K.bXbXbXW.v.#.j.2XbX  xX( ",
"}.bX  bXXXc.y.b.5XbXbXbX!.6 O Y v.,XbXbXbX%Xv.T j.l.=XbXbXbX%Xj.M.n.v.W.bXbXbX.Xc.k.l.2XbX  xX( ",
"}.bX  bX%XV.K.I bXuX=XvXxXt.i.u.` bXyX=XbXlXf.j.l.[ vXfX=XsXbXs.<.y.f.bXjXQ.dXvX` v.N.4XbX  xX( ",
"}.bX  bXuXoX2XbX_ n.n.s.xXgXH.OXbXI e.#X%XbXjXQ.OXvXbXm.k.m.bXbXF.D.bXbXK.T -.bXvX>X>XkXbX  xX( ",
"}.bX  bXbXbXbX,X<.>.A <.~.bXbXbX3Xe.C = B W.bXbXbXuXy.u.! F d.5XbXbXuXe.T p C.V.aXbXbXbXbX  xX( ",
"}.bX  bXbXbXbXXX .| ; *.M.bXbXbX~.u.~ V #.V.vXbXbX.Xv.M.$.q -.R.bXbXOX,.j.l.B.n.1XbXbXbXbX  xX( ",
"}.bX  bXbXbXbXyXu.<.T y.OXbXbXbXcXG.u.! y.;XbXbXbXsXT M.-.-.d.zXbXbXxXt.z.O.B.D.lXbXbXbXbX  xX( ",
"}.bX  bX<X^.oXbXpX$X9XtXbX8XJ.Q.vXaXW.!._ bXuXK.L.jXZ M.c.L.vX5XG.J.iXvXQ.N.M.xXbX-X$XsXbX  xX( ",
"}.bX  bXoX>.l.>XbXbXhXbXuX=.Z ~ oXbXbXhXbXM F ,.X.H.aXxXgXbXuX7.0.1.K.aXbXaXbXxXf.j.B.4XbX  xX( ",
"}.bX  bX#X .2.@XtXbXbXbX0Xg Z E W.&XbXbXvX^.S b.q.n.L.bXbXbXG.F b.q.n.L.bXbXbX~.q.>.,.2XbX  xX( ",
"}.bX  bXXX*.1.k.yXbXbXbXwX7.Y ;.y.,XbXbXbXW. .z 1.n.~.bXbXbXL.h p 1.n.~.bXbXbX.Xj. .h.2XbX  xX( ",
"}.bX  bXoXq.k.W bXyX1XvXbXe.0.j._ bX<XoXjXkXd.%.A.p.bX2X~.yXhX! z Z.s.bXdXQ.5XbX` j.j.tXbX  vX( ",
"      bX5XXX<XbX` y.j.s.bXbXH.;XbXbXV.n.H.bXbXD.p.bXbXM.v.J.bXbXp.D.bXbXH.v.M.bXbX1X>XlXbX      ",
"xX6XxXbXbXbXvX' j.>.#.q.s.lXbXbX*X0.%.2.h.G.bXgXgXbXu.>.j.q.m.bX7X7XbXd.v.w.j.M.iXbXbXbXbXhXdXbX",
"bXbXbXbXbXlX=X>.h.p x y.v.F.3X*Xa.Q z 5.4.j.$XbXbX@XD %.,.e.c.0XbXbXwX1.h.c #.k.9XuXbXbXbXbXbXbX",
"      7X7XE.v.j. .7 V y.v.n.M.v.P.M.U q.j.j.).).).).%.A u.+.c.].].9X9Xq.h.: p j.v.9XsXaX6X      ",
"~ & ;.a } 3 K T p +.p ,.>.>.$.N 0 a p *.h s $ <.Z.v.7.7.0.G 7 F ,.x p  . .q.1.u w.,.6.+.w.V.4 2 ",
"w , E < A H d.Q h T Q ..h.k.G N q F F A S B % q.o.,.B 7.; w * 8 G z u D l.l.,.z X.j.V.k.u S i C.",
"E w , 6 F +.c.S 7 b...f U j.u F '.b.@.8 T 0 S 9.c ..0.m.~ ! B +.8 d > w. .A A > D o.V. .y j.l.x.",
"~ m + Z V *.*.<.,.c.z t > t R -.+.S s G s G @.+.q...j.Y 2 q a *.v X.v.I.6.K 3 A A | | l c h.O.B.",
"e 6 m 6 g <.B.1.l q.#.x t 4 G u.+.-.G B s u.Q M.n.v.M.$.7 q 8 S v z j.6.% U.r.A G p >.b c v O.S.",
"7 Z E Z 5 l.Z.o.t q.p f @.+.T #.*.9.7.- a T T ; i G M.-.+.e.0.T 7.K 0 : s v.,.,.z l v | > % k k ",
"=.F =.R U z.z.c ..p * 5 h 5 @.s T u.F ; R u.w.- R 9.V.*.|  .u.^ < e = # | h.c D #.>.D u.u % &.} ",
"a T @. .*.3.O.U -.; & 7 C % @.S s u.F ; 8 P.T a 0.-.c.y t %.9.9.8.E e 4 #.h.: t o.X.j.v.%.s b.q.",
"8 a D | U B.1.R 0 & J Z 7 g 0.j.b.0.-.a.8 ,.x U j.u.+.u a B u.T u.i.g S T v q.h.V.v.,.1.+.s p 2.",
"L $.A p l.l.V.s o K n & & ! u.<.@.i.B $.h R G p Z.P.N.T b.m.u.z <.T a 9 ..E.u.>.c.y.z  .| G k Y."
};
