/* XPM */
static char *_12fcefe6a3146398b03984e125d7568YXeFWTsE92js5Q51[] = {
/* columns rows colors chars-per-pixel */
"48 48 235 2 ",
"   c #020201",
".  c #050904",
"X  c #080C07",
"o  c #0B0B0B",
"O  c #0D140B",
"+  c #0E1A0B",
"@  c #081804",
"#  c #121B0E",
"$  c #10100F",
"%  c #131413",
"&  c #151E11",
"*  c #1B1B1B",
"=  c #181C17",
"-  c #042500",
";  c #143607",
":  c #172211",
">  c #1A2515",
",  c #1D2719",
"<  c #183613",
"1  c #113708",
"2  c #212D1C",
"3  c #23331C",
"4  c #26391D",
"5  c #232323",
"6  c #2A2A2A",
"7  c #262925",
"8  c #273421",
"9  c #293623",
"0  c #2C3C25",
"q  c #2F3E28",
"w  c #313C2C",
"e  c #373737",
"r  c #0C4501",
"t  c #0C4604",
"y  c #144C05",
"u  c #13450B",
"i  c #164B0A",
"p  c #194808",
"a  c #16510B",
"s  c #1D550B",
"d  c #1D5C0B",
"f  c #175605",
"g  c #1D4D13",
"h  c #1C4614",
"j  c #1D5212",
"k  c #1A5714",
"l  c #225A0C",
"z  c #234918",
"x  c #225513",
"c  c #235C13",
"v  c #2A5D15",
"b  c #265E1B",
"n  c #2A5D1B",
"m  c #2A5519",
"M  c #315B1C",
"N  c #1B670D",
"B  c #24620C",
"V  c #27660C",
"C  c #246213",
"Z  c #2B6414",
"A  c #2C6B14",
"S  c #2C651A",
"D  c #2D6A1A",
"F  c #266715",
"G  c #31631B",
"H  c #336C1B",
"J  c #346C18",
"K  c #2F751A",
"L  c #317214",
"P  c #33721C",
"I  c #38741E",
"U  c #3B7B1D",
"Y  c #37791A",
"T  c #326F0F",
"R  c #2F4526",
"E  c #32422A",
"W  c #364A2D",
"Q  c #384C2F",
"!  c #2B5C25",
"~  c #355729",
"^  c #394C31",
"/  c #3A4734",
"(  c #3E5435",
")  c #2E6722",
"_  c #346C22",
"`  c #3D6C2A",
"'  c #396628",
"]  c #347323",
"[  c #3A7424",
"{  c #3C7B25",
"}  c #3D752A",
"|  c #3D7A29",
" . c #34762B",
".. c #3D6834",
"X. c #3D7635",
"o. c #2D7324",
"O. c #407B1D",
"+. c #425439",
"@. c #455A3C",
"#. c #44583A",
"$. c #414A3F",
"%. c #427C24",
"&. c #43752D",
"*. c #427C2B",
"=. c #437828",
"-. c #446D33",
";. c #447D32",
":. c #497D34",
">. c #4D7B3A",
",. c #497436",
"<. c #4C7435",
"1. c gray29",
"2. c #4B5E42",
"3. c #5B5B5B",
"4. c gray33",
"5. c #4D6343",
"6. c #4E6B42",
"7. c #556C4A",
"8. c #516A46",
"9. c #57724B",
"0. c #59734D",
"q. c #5C7B4E",
"w. c #537743",
"e. c #5F615E",
"r. c #5E7952",
"t. c #60605F",
"y. c #617E53",
"u. c #605F60",
"i. c #606060",
"p. c #6D6D6D",
"a. c #7A7A7A",
"s. c #777777",
"d. c #3B8325",
"f. c #438425",
"g. c #44832B",
"h. c #49852D",
"j. c #47882E",
"k. c #4A8B2D",
"l. c #468825",
"z. c #468232",
"x. c #4B8434",
"c. c #4C8A33",
"v. c #4C843A",
"b. c #4E8D3A",
"n. c #478935",
"m. c #528D35",
"M. c #53853D",
"N. c #528C3C",
"B. c #598B3C",
"V. c #4F9537",
"C. c #539236",
"Z. c #54933B",
"A. c #59953D",
"S. c #55993D",
"D. c #5B9A3C",
"F. c #599B35",
"G. c #51902E",
"H. c #609F3E",
"J. c #63A13D",
"K. c #4E8B42",
"L. c #558C42",
"P. c #598747",
"I. c #569241",
"U. c #5B9344",
"Y. c #5D9C44",
"T. c #5D9C49",
"R. c #5B9448",
"E. c #5F9E55",
"W. c #628C4D",
"Q. c #619C46",
"!. c #62954B",
"~. c #639C4C",
"^. c #69984C",
"/. c #638455",
"(. c #658259",
"). c #6A8C5B",
"_. c #648A54",
"`. c #699D53",
"'. c #6D925D",
"]. c #689855",
"[. c #719B5E",
"{. c #709A5A",
"}. c #5EA341",
"|. c #63A344",
" X c #65A24A",
".X c #69A54D",
"XX c #6BAA4D",
"oX c #69A846",
"OX c #70B24F",
"+X c #6BA453",
"@X c #6DAB52",
"#X c #69A456",
"$X c #70AD55",
"%X c #73A45D",
"&X c #73AC5B",
"*X c #70A754",
"=X c #72B452",
"-X c #76B25B",
";X c #79B25E",
":X c #7ABB5B",
">X c #76B857",
",X c #6CAD4D",
"<X c #6F9260",
"1X c #719561",
"2X c #749B63",
"3X c #6F8D61",
"4X c #76A362",
"5X c #78A564",
"6X c #76AA60",
"7X c #7AAB64",
"8X c #7EAA69",
"9X c #7BB462",
"0X c #7DBB67",
"qX c #6AA961",
"wX c #7BC05A",
"eX c #81B85C",
"rX c #82BB6B",
"tX c #84C05F",
"yX c #8CC575",
"uX c #8CC770",
"iX c #A4DF7B",
"pX c #878787",
"aX c #8C8C8C",
"sX c #929292",
"dX c #A5A5A5",
"fX c #ABABAB",
"gX c #B3B3B3",
"hX c #9FD882",
"jX c #A3DB83",
"kX c #ACE08E",
"lX c #D0D0D0",
"zX c #EDEDED",
"xX c #E6E6E6",
"cX c #F5F5F5",
"vX c #FFFFFF",
/* pixels */
"S r S [ | x.%.{ P F m.b._ Z { h.c.I Z.f.G.j.i j u j _ [ =..X;XA.c.@XP g.A.j.g.f a S I g.C ] oXd.",
"i *.=.J | I A D C [ D H c r D m. Xc.d K d.Y [ i i !.rXi g.iXJ.l T |.tX9XZ.;.a S  .) J %.s { F.V ",
"s .Xx.I H H S r u } s s Z l [ F n.b.d F A f.;Xx.} rXhX XJ.|.|.G.T eXkX4Xm u ! ! i n Z.C.] h.F.c.",
"=.=.Z Z S I.v.' ` S y c 0XuXU.r F g.n.C B c.Q.m.H -X|.tX@XJ G H B.{.-...< @ h ~ ' &.V.V.Y.f.k.}.",
"x u x r v M.&.m.D.c.Z ] yXyXb.y D { n.f y B {  XB L O.|.G 1 n G ' z - < ; - ; M W.I d.V.z.D c.S.",
"z h n _ B.s S %.|..X;.} b.Y.C.Y.{ d y i i y | T.F r S x g u :.`.^.<.p p m >.^.U.N.A N | ;.u H Z.",
"P.h H C.D.d t S A.| _ _ [ B j.A.F f F b a t  .o.a k b i ) } U.uXjX+X^.U.&.' ^.x.d d.N C I.L._ [ ",
"a.a.a.a.a.a.a.a.a.a.a.a.a.a.a.a.a.a.a.a.a.a.a.a.a.a.a.a.a.a.a.a.a.a.a.a.a.a.a.a.a.a.a.a.a.a.a.a.",
"                                                                                                ",
"1.pXaXaXaXaXaXaXaXaXaXaXaXaXaXaXaXaXaXaXaXaXaXaXaXaXaXaXaXaXaXaXaXaXaXaXaXaXaXaXaXaXaXaXpXsXa.e ",
"pXcXvXcXcXcXcXcXcXcXcXcXcXcXcXcXcXcXcXcXcXcXcXcXcXcXcXcXcXcXcXcXcXcXcXcXcXcXcXcXcXcXcXcXcXvXxX3.",
"pXvXfXi.3.i.i.3.3.u.i.i.i.i.t.i.i.3.3.i.u.t.e.e.e.i.3.i.3.3.3.3.e.e.i.3.3.i.i.i.i.i.3.3.p.lXxX3.",
"pXvXa.X . @ + .   . . .   . @ X     . X .   + < X     . X .   O @ + .   . . .           * fXzX3.",
"pXvXa.  5.I.v.W.3.    5 4XR.!.%X7Xi.    5 {.~.A.v.%X2X%   % '.6X`.;.Q.4X.     2X7X7X7X( o dXzX3.",
"pXvXa.  (.x.v L.7     X [.| S A.$X1.    $ ).S.V.T.Y.r..     _.@XZ.C.g.'.      7.$X$X$X9.. dXzX3.",
"pXvXa.  3X.X!.(   ( ).. , W.*. Xr.  +.(.. 4 b.S.b.P.# E /.Q O `.g.g.!.& , 2X9 O y.$X$X9.. dXzX3.",
"pXvXs.  / 1X2.  2.&X@X3XO , <X7.  +.9X$X2X. < P.P.# 0 R.z.%XE & P.W.# 3 {.@X6Xq O ).'.9 o dXzX3.",
"pXvXa.      . 0.$XY.b..X2Xo .   2.-XuX&X X2X% . . ( %XS S b.%X7   . 0 5XU.} m.6X@..     * dXzX3.",
"pXvXa.      X 1X Xb.x A.7X*     <X*X>.w.R.@X*     7.Y.H z.+X$X1.    2. XM.v z.@Xr.      * dXzX3.",
"pXvXa.  X * X w %X X~.+X7.  6 X 8 '.&.N..X(.  * % : '.Z.A.$X'.. % 5 > '.~.U.Q.5X2 % *   * dXzX3.",
"pXvXa.  7.6X'.# 2 8X7X2.  @.;X1X, , 2X$X(.  +.%X2X9 + 2X$X'.O 0 5X7X0 : ).$X4X, 3 5X7X^ o dXzX3.",
"pXvXa.  _.Q.$X(.# . e   @.+XQ..X2X: % 6   @.~.U.@X4XE   7 X 9 %X.X X6X0   e   9 %X|..Xq.. dXzX3.",
"pXvXa.  w.` ` R.0.    = +X` ~ L.@X'.    * %Xz.D ;XXX2Xo     5X XZ. X.X7X      2X+Xc. X9.. dXzX3.",
"pXvXa.  '.+XQ.+X@.  . o ].z ; &.@X/.    % 4X@X*. XXX).X     1X X$X$X@X4X  .   /.+X.XXX0.. dXzX3.",
"pXvXa.  1X-X7X+.# +.).: > W.^.~.q.# #.(.# 3 [. XXXy.: E /.^ # '.A.Q.[.& 9 1Xw : q.@X$X9.. dXzX3.",
"pXvXs.  +.1X5.# 5.$X$X'.> 4 [.w.# #.R.[ P.X 8 '.y.: 3 %X.X%X0 # /.1X# R 7X*.N.q : ).).8 % dXzX3.",
"pXvXa.    . . 7.A.C.] A.[.o o   2.R.' p _ 4X. X . W Q.~.:.} ].W   . E R.*.D ;X-X( . .   * dXzX3.",
"pXvXa.      O _.g.f.s m.&X*     1X~.>.` x.$X5     /.@X&Xv.n N.q.    6.S. XXXOX$Xy.      * dXzX3.",
"pXvXa.    X . Q ~.A.*.Q.9.  * . 2 %X~.:.Q.0.. % . z *.$XN.N.]., o * > W.oXl.=X2X8 % X   * dXzX3.",
"pXvXa.  0.9X'.# ( `.@X6.  5.%X).: R N.h.6.. W +X~.3 ' %XQ.W.: W 5X6XE : P.S.@X, + 5X7X^ o dXzX3.",
"pXvXa.  _.C.XXP.+ = e   5.M.' >./.& * e   ( } Z.j.5XR , w o W L.U.S.7XW   $.+ , [. X$X9.. dXzX3.",
"pXvXa.. >.h.F.c.0.    % -XG ..-.N.).    , #X[ #XY.$X2Xo   . {.} #XY.$X7X      1XY.C.S.,.X dXzX3.",
"pXvXa.. P.m.D..X7.    % 8XL.&.B.Q.r.    * {.g.P D.$X'.o   X P.H A D.$X2X      ). Xg.|.w.. dXzX3.",
"pXvXa.  ).Y..X6.# 7.).: O R.U. X5.  6.).9 3 ].b.>X(.& +.).^ < :.P :X<XO 0 '.+.  q. X X6.X fXcX3.",
"a.xXp.  #.[.8.: q.Q. X).> X 2X5.  5.;X$X5X, 2 2X/.& W &X@X7X0 O (.2XO E 5X@X&X#.  ).'.9 o sXlX1.",
"6 3.6       : w. XC.c.Y.'.2     5.U.b.F.|.4X2     Q ~.C. XY.%XE     W ].@XT. X&X@.      X e 4.* ",
"X . X o % 2 r.C.|.A I Q.@X1XQ 5.Q.;.P J.H. X7X3 ^ +X{ b.I.R.+X7Xq ^ %XD.|.U c..X&X@.o % o X . . ",
"dXdXdXdXgX-X@X Xh.c _ Y.@X$X&X@X9X&X%.Y. X X$X;X$X.Xb.] ~.z.+X@X&X-X.XY.|.d A  X@X&XlXgXdXdXdXdX",
">.u M.S d.k X.*.A z.D Z.C.C.v.) b S D b.H D t A.:X@XL.L.U.| x } Z.I A g.g.Y.D.C T.Z.K.z.T.-Xl j ",
"m h -.g ]  .].;.H *.;.h.|..X| ) n } | ] [ _ y Y.k.Z._ L.s m i c | P C { XXXXZ.P j. X-X.Xc [ Z :X",
"-.m h z } z..X[ c +X:.J %. XC } yX+Xx.c *.b [ I.U h.U.%X>.:._ z.c F f T.g.] ] f { k.-Xg.V  XXXOX",
"M.~ < ' ' m.m.A.Z.+XP B f B =.N.z.[ D | D | v.z.Y.h. X&.j n S m.U j.@X0XK.X.k ] ] f.f.L U |.l.=X",
"M z ~ z G A.=XD.L Y.c.I B l { Q.z.N.| _ D !.;.&X$X@X&Xv.x n c [ Y P  XK.y qXE.] | A C.T U Y l.,X",
"x ' -.' l @X:Xk.B Y.A J x.z.*.c.m.I.L.a S *.*.f Z | $XN.z.R.U.*.L.X.v d D @XZ.Z.P L U f.f y K K ",
"M.} M.=.%.oXoXU h.D i l H l v.D *.~.} s =.~.T.a =.I.;Xm.f.g.~.;.g M p r f.|.U { c.C.{ ~.C y n.d.",
"S *.z.g.m.G.l.%.N.s u x ` y x.[ D Q.| s c 9X*.S U.N.+XV V b.I.I.L.-.M l c.|.d B k.j. X@Xb.D #XY.",
"c S [ *.%.=XD.=.v u ..' x G U. X+XU.N.`.c Z.I %. X~.z.C S _ ~.*.!.!.G [ *.U Y.Q.-X@XS.S.z.D A D.",
"o.v.] A XXXX-XD 1 X.! u u :.~.A.x.!._ v.H =.{ A :X9X$X*.#X%X!.P A.*.S c h.rX XC.+XY.P g.f.| K wX"
};
