/* XPM */
static char *_7aeccacacbb4d1c898bfe763c514adfRRL7UV6tRZen1F4I[] = {
/* columns rows colors chars-per-pixel */
"48 48 254 2 ",
"   c #000000",
".  c #040706",
"X  c #041502",
"o  c #020316",
"O  c #131512",
"+  c #022401",
"@  c #0A2E0C",
"#  c #083905",
"$  c #133708",
"%  c #163712",
"&  c #0B1127",
"*  c #231F3C",
"=  c #362D2C",
"-  c #363335",
";  c #2B2325",
":  c #0C4402",
">  c #0B4905",
",  c #144C04",
"<  c #13440B",
"1  c #154C0A",
"2  c #1C4D0C",
"3  c #164706",
"4  c #195505",
"5  c #14530B",
"6  c #1C540C",
"7  c #1D5B0C",
"8  c #155707",
"9  c #1C4714",
"0  c #1E5312",
"q  c #1B5B12",
"w  c #0A5606",
"e  c #225C0C",
"r  c #21560C",
"t  c #224A16",
"y  c #235413",
"u  c #245C12",
"i  c #2A5C15",
"p  c #235D1B",
"a  c #2B5C1A",
"s  c #29541A",
"d  c #315B1B",
"f  c #19660C",
"g  c #1C6514",
"h  c #157415",
"j  c #24630D",
"k  c #26690D",
"l  c #26750D",
"z  c #246313",
"x  c #2B6414",
"c  c #266A12",
"v  c #2B6B14",
"b  c #2C651A",
"n  c #2D6B1B",
"m  c #25641A",
"M  c #31641B",
"N  c #336B1C",
"B  c #336B18",
"V  c #297518",
"C  c #317315",
"Z  c #34721C",
"A  c #39751D",
"S  c #3B7B1C",
"D  c #36791A",
"F  c #366D0F",
"G  c #2D5924",
"H  c #355A27",
"J  c #157831",
"K  c #2C6623",
"L  c #346C22",
"P  c #386828",
"I  c #347223",
"U  c #3A7424",
"Y  c #3C7B24",
"T  c #3D742A",
"R  c #3D7B2A",
"E  c #347A24",
"W  c #3E7933",
"Q  c #34702C",
"!  c #0F5722",
"~  c #417C24",
"^  c #427B2B",
"/  c #42762B",
"(  c #436C32",
")  c #437D33",
"_  c #4B7D35",
"`  c #497635",
"'  c #4C7435",
"]  c #020A52",
"[  c #35356F",
"{  c #307642",
"}  c #096776",
"|  c #077479",
" . c #147778",
".. c #0D7469",
"X. c #084776",
"o. c #554D4F",
"O. c #574975",
"+. c #706363",
"@. c #268415",
"#. c #3B841C",
"$. c #1A8E34",
"%. c #3B8326",
"&. c #389A34",
"*. c #318F2F",
"=. c #25A420",
"-. c #43871F",
";. c #428425",
":. c #428B24",
">. c #44832B",
",. c #49852D",
"<. c #4A8C2C",
"1. c #47892A",
"2. c #49942D",
"3. c #52942C",
"4. c #509D2C",
"5. c #468432",
"6. c #4B8434",
"7. c #4C8A33",
"8. c #4C883A",
"9. c #528D35",
"0. c #538D3B",
"q. c #53863B",
"w. c #4C9233",
"e. c #4A9638",
"r. c #539334",
"t. c #54933B",
"y. c #59943C",
"u. c #5B9A3D",
"i. c #579836",
"p. c #528A2C",
"a. c #629A3E",
"s. c #59A338",
"d. c #4CAC3D",
"f. c #63A13D",
"g. c #118C51",
"h. c #2C914C",
"j. c #31A642",
"k. c #1A886C",
"l. c #349962",
"z. c #4C8741",
"x. c #538B42",
"c. c #578944",
"v. c #569142",
"b. c #5B9443",
"n. c #5C9B42",
"m. c #5C9C49",
"M. c #55934E",
"N. c #629C44",
"B. c #629C4C",
"V. c #63954B",
"C. c #669851",
"Z. c #5AA543",
"A. c #51B24B",
"S. c #64A343",
"D. c #65A24A",
"F. c #69A44B",
"G. c #69AA47",
"H. c #6CB14B",
"J. c #6AA453",
"K. c #6DAB53",
"L. c #69A655",
"P. c #73AD5A",
"I. c #71AA56",
"U. c #74B553",
"Y. c #76B35B",
"T. c #7AB85A",
"R. c #6CAF51",
"E. c #7BB863",
"W. c #6EAC61",
"Q. c #7BC05C",
"!. c #7DC866",
"~. c #FFF700",
"^. c #82B85A",
"/. c #82BD69",
"(. c #9D817D",
"). c #82C25D",
"_. c #86C768",
"`. c #8BC776",
"'. c #8ECF74",
"]. c #A4DF7B",
"[. c #0A0E96",
"{. c #322D95",
"}. c #0003AB",
"|. c #0003B4",
" X c #043CB5",
".X c #1B38A3",
"XX c #025A9B",
"oX c #0D558A",
"OX c #056986",
"+X c #0449AA",
"@X c #605596",
"#X c #001AD9",
"$X c #0F13D3",
"%X c #0123D3",
"&X c #0A31C9",
"*X c #010BEB",
"=X c #0004EA",
"-X c #0014E3",
";X c #0001F6",
":X c #0000FA",
">X c #090AF6",
",X c #1816F5",
"<X c #1715ED",
"1X c #2B26EE",
"2X c #3B38F9",
"3X c #2C27F2",
"4X c #2F2AD3",
"5X c #453AF3",
"6X c #4547CE",
"7X c #7566DB",
"8X c #5346EA",
"9X c #7963E3",
"0X c #6F69FB",
"qX c #6C59D9",
"wX c #8B7E8A",
"eX c #997ED7",
"rX c #38879F",
"tX c #698DCB",
"yX c #6F9894",
"uX c #A09FA2",
"iX c #CBA8A3",
"pX c #CCA7AC",
"aX c #99D38F",
"sX c #ABD293",
"dX c #AED7A8",
"fX c #CAD1A7",
"gX c #C5E8BB",
"hX c #F0C6BF",
"jX c #988ECE",
"kX c #B292D9",
"lX c #9089ED",
"zX c #B4A8F7",
"xX c #A49CFF",
"cX c #D2ACD2",
"vX c #C5BCF8",
"bX c #D1C8D1",
"nX c #D6CBD5",
"mX c #CAC8C9",
"MX c #EAC5CB",
"NX c #FACCCB",
"BX c #FED3CC",
"VX c #FBD5C7",
"CX c #F5C8D2",
"ZX c #FFDBD7",
"AX c #ECD2D3",
"SX c #D8CEFD",
"DX c #D0CCF4",
"FX c #EED8EA",
"GX c #F9EAFA",
"HX c #FEF3FE",
"JX c #FFFFFF",
"KX c #F6F3F6",
"LX c #EFE1F9",
"PX c #E0EBDC",
/* pixels */
"b : b U R 7.~ R Z c 9.7.L x Y ,.7.A t.;.2.,.1 0 < 0 L U ~ F.T.y.7.K.Z ,.t.7.>.4 5 b A ,.m I G.%.",
"1 ^ ^ B R A v n m U v N u : n 0.D.7.7 V %.A U 1 , C./.1 >.].f.e F S._.E.v.5.5 m Q K N ~ 6 Y i.k ",
"2 F.6.Z B N b : < T 6 6 x r U x 7.0.7 c v ;.Y.8.T /.aXD.a.S.S.p.F ^.sXW.s < G G 1 a t.r.I ,.i.w.",
"/ / x x b v.6.P T b , u E._.b.: n ,.7.z f 5.n.9.B Y.S.).K.B M N 0.J.( P % X 9 H P / e.w.n.;.<.Z.",
"y 3 y : i q./ 9.u.7.x I `.'.7., n Y 8.4 , j Y G.k l k %.f > 7 f V 9 + % $ + $ d V.Z %.e.5.n 7.t.",
"s 9 a L 0.6 b ~ S.F.) T 7.n.t.n.Y 7 , 1 5 8 *.A.h #             < R 6 2 s _ V.b.0.v g R ) < N t.",
"c.9 N r.u.7 > b t.R L L A j 1.t.n 8 b p @.| +X.X] o               X < %.Y P C.6.8 %.f z v.z.P U ",
"V.i ^ 1.;.v 6 7 5.n x.b ^ ;.D v E g.OX| XX&X&X6XO.&                 . > Y # ) W g 2.4.#.S.E.N : ",
"N.i U C #.E u z 5.m 0 : ^ A V V $. X*X*X<X1X8XeXwX;                   + q # W I v #.s.#.S ,.0.x.",
"a.3 a k :.Y u v v b 0 r U h ..+X&X*X:X>X9XcXcXCXiX=                     # 5 >.Z.<.S s.1.n 5._./.",
"_ 2 / 7.w.0.M U ,.U 2 i U @.+X*X;X;X;X,XjXNXNXZXiX=                     X m R 7.:.i.).f., >.T.i.",
"L < >.s.7.a # ) E.B.u 2 U j.%X:X;X;X;X1XkXBXBXZXiX=                     X 5 I 7.k s.H.;.n 1.3.S ",
"P 6 w.s.S d # T _.F.x r g.+X*X:X;X;X,XqXcXBXBXZXiX=                     X > 7.Y S i.S Y n.9.B L ",
"/ 0.S.s.r.` 9 8.G.Y ^ u.| *X:X;X;X:X1XqXcXBXBXBXiX=                     X 5 n.<.Y z 4 ^ K.B.y $ ",
"q.U i.S.n./ y v.;.e >.9. .-X;X;X;X:X$X@XpXNXhXhX(.;                     X z 3.;.m p : Q u.a.y + ",
"` 2 9.<.e.p P ^ ;.r.t.S.d...-X:X;X:X$X{.O.+.+.o.- O                     X e.-.j W K K L N.S.a # ",
"a s _ x E p z.^ t.D.y.Y.i.j. X;X;X:X$X[.* O O . .                       & { $.J j.s.e.%.Z.w.e R ",
"3 H s y I 8.B.b b P.y.9.D.A.XX-X;X:X<X{.* . .                         O [ .X&X XX.9 < $ # l n.T.",
"( t 9 H T b.N.^ 0.P.x j A w.$.h.k.#X5XjXuX+.+.-                 . - o.@X6X<X:X=X}.o       p w.S.",
"' t t G T y.t.t.n.n.Y e , j 5.t.*...rXaXmXnXmXwX- - - - - - - - o.wXuXlX1X;X:X;X}.o       X # =.",
"y H G s N K.T.;.D y.;.Z v Z 9.N.>.z.{ V aXHXGXFXbXbXbXbXbXbXbXbXnXFXvX0X3X:X;X;X|.o         X =.",
"s ' ( K Z _.G.D S 7.4 Z 6.T Y >.t.J.T 1 %.`.PXJXJXJXJXJXJXJXJXJXLXxX0X2X>X;X;X;X|.o       # @.c ",
">., 6 ^ Y 7.Y R c v 1.9.N u U >.9.U t.%.-.A.dXSXSXSXSXSXSXSXSXSXxX2X>X>X;X;X;X;X|.& @ 1 > h Z.2.",
"u u U N ^ >.B Y I I N ^ L 6 n 9.0.7.z %.;.h.~.~.~.~.~.2X2X2X2X2X3X>X;X;X;X;X;X;X%X..h V z f G.D ",
"2 0.6.Z N Z b 1 1 _ b r 4 , n Z 5.n.c j Y $.~.~.~.~.~.~.;X;X;X;X;X;X;X;X;X;X;X;X-XXX$.y.N ~ r.<.",
"i 6./ M b U q.i K 6 u 1 J.J.B.7 z 7.I g j d.tX5X>X~.~.~.~.;X;X;X;X;X;X;X;X;X;X;X;X%Xk.<.K.1.S U.",
"P 2 r , , c.q.^ t.7.u 4 E.`.K.7 m U R.A.W.aXDX0X,X;X;X~.~.~.~.~.;X;X;X;X;X;X;X;X:X-Xg.w.%.U ,.u.",
"< $ P 6 6.M b ~ i.K.b.I B.I.n.%.Z.%.Z.PXHXHXHXzX0X2X,X;X;X~.~.~.~.;X;X;X;X;X;X;X:X*XOXh.E q b b.",
"M.9 K U F.B 1 u w.e.V g %.f %.A.'.sXfXGXHXHXHXLXSXzX0X,X>X>X~.~.~.~.;X;X;X;X;X;X;X;X#XXX*.T y ^ ",
"I.y T ,.i.v q h k... . .......yXCXBXZXHXHXHXHXHXHXGXvXlX8X1X;X~.~.~.;X;X;X;X;X;X;X;X:X%X&./.B.r ",
"F.M _ D :.%.J } *X:X:X:X:X:X:X9XMXBXZXGXHXHXHXHXHXHXHXLXzX9X5X3X~.~.;X;X;X;X;X;X;X;X%X| @.r.b n ",
"^.3 u j 2.*.OX#X;X:X:X:X:X:X:X9XMXBXBXZXGXKXKXKXHXHXHXGXAXcXcXkX9X,X;X;X;X;X;X;X;X*X| &.Y ^ T.`.",
"&.f V @.@.J #X:X;X;X;X;X;X;X:X9XMXBXBXBXZXgX'.aXHXHXHXHXZXVXVXBXkX1X;X;X;X;X;X:X:X#Xl.H.4 m U.H.",
"          & }.=X;X:X:X:X:X:X:X9XCXBXBXVXfXZ.V e.dXgXdXdXAXBXBXBXcX8X>X:X:X:X;X#X+XOXA.3.;.A G.C ",
"          o ] }.=X;X;X;X;X;X=X7XMXVXVXfXZ.l :.i.Z.s.-.%.`.BXVXVXMXjX6X=X;X;X#X .J &.2.C n.5.Y Z ",
"            o ] [.oX}  . . . .l.!._.!.d.%.1.:.f.U 6 , D s.'._.Q.'.R.l.} } } k.&.;.Y e R >.P.b y ",
"              O ! @.V r.:._.g U T K m F.E.t.r.3.~ 6 b t.-.f.x b `.K.>.8 z c <.s.Z L : m >.a.a + ",
"              m @.D 7.9.U.t.7 b y 1 v G.G.>.z u./.E.P.0.F.N.x 0.D.i.Z c u.U.3.S m p K p 7.S.U 0 ",
"8 > 7 w w w g E 9.F.t.I.i.r.8.K 0 0 Y 3.3.x : i.T.K.0.I T 8.< T t.D v 1.G.U.3.: m.t.x.5.m.Y.e 0 ",
"z 0 / q E E m.) u F.J.7.S.F.R K a L C f.i.m , n.<.t.I x.6 s 1 p R Z z S S.R.t.n 1.G.Y.J.z U x T.",
"( s 9 t T >.F.U 0 Y.6.B ~ G.z R `.I.~ n.B.u U v.S ,.b.I._ _ L 5.u n 8 m.>.I I 8 E <.Y.,.j D.G.R.",
"_ H % P L 9.9.y.t.K.Z j 4 j ^ 0.5.U b 0.z T 6.5.n.,.D./ 0 a b 0.S 1.L.E.x.W q I I ;.;.C S S.;.U.",
"d t G t M y.U.u.C n.7.A j e Y B.5.0.R I n B.) P.I.K.I.6.y a u U S Z D.x.> W.B.I R c r.v S D :.H.",
"y P ( P r K.T.<.j n.v B 6.5.^ 7.0.v.x.5 b / ^ 4 x R I.0.5.m.b./ x.W u 7 n L.t.t.C V D >.4 , D D ",
"q./ q.~ ~ F.G.S ,.n 1 r N r 6.n ^ B.T 6 ^ B.m.5 ^ v.Y.0.;.1.B.) 0 s 3 : 1.S.S R 7.i.Y B.z , 7.%.",
"b / 8.>.9.3.1.~ 9.6 < y T 1 8.U n B.U 6 u E.^ b b.0.J.j j 7.v.v.c.( d e 7.S.8 j <.,.D.K.0.n L.n.",
"u b Y >.~ U.u.^ u < Q P y M b.D.K.b.0.C.u t.Z ~ D.B.5.z b L B.^ B.V.M U ^ S n.S.Y.K.t.u.5.n v y.",
"L 8.I v R.H.Y.n $ W G < < _ B.y.6.V.L 8.B ^ Y v T.E.I./ J.P.B.Z t.^ b u ,./.B.t.J.m.Z ,.>.R V Q."
};
