/* XPM */
static char *_e1baf052b344f53fb39bbfb508ab1f2zwNMYJtFUlSNnM0u[] = {
/* columns rows colors chars-per-pixel */
"48 48 254 2 ",
"   c #000000",
".  c #040706",
"X  c #041502",
"o  c #020316",
"O  c #131512",
"+  c #022401",
"@  c #0A2E0C",
"#  c #083905",
"$  c #133708",
"%  c #163712",
"&  c #0B1127",
"*  c #231F3C",
"=  c #362D2C",
"-  c #363335",
";  c #2B2325",
":  c #0C4402",
">  c #0B4905",
",  c #144C04",
"<  c #13440B",
"1  c #154C0A",
"2  c #1C4D0C",
"3  c #164706",
"4  c #195505",
"5  c #14530B",
"6  c #1C540C",
"7  c #1D5B0C",
"8  c #155707",
"9  c #1C4714",
"0  c #1E5312",
"q  c #1B5B12",
"w  c #0A5606",
"e  c #225C0C",
"r  c #21560C",
"t  c #224A16",
"y  c #235413",
"u  c #245C12",
"i  c #2A5C15",
"p  c #235D1B",
"a  c #2B5C1A",
"s  c #29541A",
"d  c #315B1B",
"f  c #19660C",
"g  c #1C6514",
"h  c #157415",
"j  c #24630D",
"k  c #26690D",
"l  c #26750D",
"z  c #246313",
"x  c #2B6414",
"c  c #266A12",
"v  c #2B6B14",
"b  c #2C651A",
"n  c #2D6B1B",
"m  c #25641A",
"M  c #31641B",
"N  c #336B1C",
"B  c #336B18",
"V  c #297518",
"C  c #317315",
"Z  c #34721C",
"A  c #39751D",
"S  c #3B7B1C",
"D  c #36791A",
"F  c #366D0F",
"G  c #2D5924",
"H  c #355A27",
"J  c #157831",
"K  c #2C6623",
"L  c #346C22",
"P  c #386828",
"I  c #347223",
"U  c #3A7424",
"Y  c #3C7B24",
"T  c #3D742A",
"R  c #3D7B2A",
"E  c #347A24",
"W  c #3E7933",
"Q  c #34702C",
"!  c #0F5722",
"~  c #417C24",
"^  c #427B2B",
"/  c #42762B",
"(  c #436C32",
")  c #437D33",
"_  c #4B7D35",
"`  c #497635",
"'  c #4C7435",
"]  c #020A52",
"[  c #35356F",
"{  c #307642",
"}  c #096776",
"|  c #077479",
" . c #147778",
".. c #0D7469",
"X. c #084776",
"o. c #554D4F",
"O. c #574975",
"+. c #706363",
"@. c #268415",
"#. c #3B841C",
"$. c #1A8E34",
"%. c #3B8326",
"&. c #389A34",
"*. c #318F2F",
"=. c #25A420",
"-. c #43871F",
";. c #428425",
":. c #428B24",
">. c #44832B",
",. c #49852D",
"<. c #4A8C2C",
"1. c #47892A",
"2. c #49942D",
"3. c #52942C",
"4. c #509D2C",
"5. c #468432",
"6. c #4B8434",
"7. c #4C8A33",
"8. c #4C883A",
"9. c #528D35",
"0. c #538D3B",
"q. c #53863B",
"w. c #4C9233",
"e. c #4A9638",
"r. c #539334",
"t. c #54933B",
"y. c #59943C",
"u. c #5B9A3D",
"i. c #579836",
"p. c #528A2C",
"a. c #629A3E",
"s. c #59A338",
"d. c #4CAC3D",
"f. c #63A13D",
"g. c #118C51",
"h. c #2C914C",
"j. c #31A642",
"k. c #1A886C",
"l. c #349962",
"z. c #4C8741",
"x. c #538B42",
"c. c #578944",
"v. c #569142",
"b. c #5B9443",
"n. c #5C9B42",
"m. c #5C9C49",
"M. c #55934E",
"N. c #629C44",
"B. c #629C4C",
"V. c #63954B",
"C. c #669851",
"Z. c #5AA543",
"A. c #51B24B",
"S. c #64A343",
"D. c #65A24A",
"F. c #69A44B",
"G. c #69AA47",
"H. c #6CB14B",
"J. c #6AA453",
"K. c #6DAB53",
"L. c #69A655",
"P. c #73AD5A",
"I. c #71AA56",
"U. c #74B553",
"Y. c #76B35B",
"T. c #7AB85A",
"R. c #6CAF51",
"E. c #7BB863",
"W. c #6EAC61",
"Q. c #7BC05C",
"!. c #7DC866",
"~. c #FFF700",
"^. c #82B85A",
"/. c #82BD69",
"(. c #9D817D",
"). c #82C25D",
"_. c #86C768",
"`. c #8BC776",
"'. c #8ECF74",
"]. c #A4DF7B",
"[. c #0A0E96",
"{. c #322D95",
"}. c #0003AB",
"|. c #0003B4",
" X c #043CB5",
".X c #1B38A3",
"XX c #025A9B",
"oX c #0D558A",
"OX c #056986",
"+X c #0449AA",
"@X c #605596",
"#X c #001AD9",
"$X c #0F13D3",
"%X c #0123D3",
"&X c #0A31C9",
"*X c #010BEB",
"=X c #0004EA",
"-X c #0014E3",
";X c #0001F6",
":X c #0000FA",
">X c #090AF6",
",X c #1816F5",
"<X c #1715ED",
"1X c #2B26EE",
"2X c #3B38F9",
"3X c #2C27F2",
"4X c #2F2AD3",
"5X c #453AF3",
"6X c #4547CE",
"7X c #7566DB",
"8X c #5346EA",
"9X c #7963E3",
"0X c #6F69FB",
"qX c #6C59D9",
"wX c #8B7E8A",
"eX c #997ED7",
"rX c #38879F",
"tX c #698DCB",
"yX c #6F9894",
"uX c #A09FA2",
"iX c #CBA8A3",
"pX c #CCA7AC",
"aX c #99D38F",
"sX c #ABD293",
"dX c #AED7A8",
"fX c #CAD1A7",
"gX c #C5E8BB",
"hX c #F0C6BF",
"jX c #988ECE",
"kX c #B292D9",
"lX c #9089ED",
"zX c #B4A8F7",
"xX c #A49CFF",
"cX c #D2ACD2",
"vX c #C5BCF8",
"bX c #D1C8D1",
"nX c #D6CBD5",
"mX c #CAC8C9",
"MX c #EAC5CB",
"NX c #FACCCB",
"BX c #FED3CC",
"VX c #FBD5C7",
"CX c #F5C8D2",
"ZX c #FFDBD7",
"AX c #ECD2D3",
"SX c #D8CEFD",
"DX c #D0CCF4",
"FX c #EED8EA",
"GX c #F9EAFA",
"HX c #FEF3FE",
"JX c #FFFFFF",
"KX c #F6F3F6",
"LX c #EFE1F9",
"PX c #E0EBDC",
/* pixels */
"%.G.I z ,.A b 5 6 ^ 7.t.,.Z K.7.y.T.F.~ U I 0 < 0 , ,.3.;.t.A 7.,.~ x L 7.9.c Z Y ~ 7.R U b : b ",
"k i.Y 6 ~ B L Q m 5 ) v.E._.S.F e a.].>., /.C.3 1 U D %.C 7 7.D.0.n : u N v U z n v A R B ^ / , ",
"w.i.1.I r.t.i 1 G G < s W.sX^.F p.S.S.f.D.aX/.T 6.Y.>.c c 7 0.7.x U r x 6 6 T < : b N B Z 6.F.2 ",
"Z.<.;.n.w.e./ P H 9 X % P ( J.0.N M B K.).S.Y.N 9.N.7.j z 7.,.n > b._.E.u , b T P 8.v.b u x / / ",
"i.7.n 5.e.%.Z V.d $ + $ % + 9 V f 7 > f %.k l k D.Y j , 4 8.Y n , 7.'.`.I x 7.u.9./ q.a : y 3 y ",
"t.N < ) R g c 0.b.V._ s 2 6 Y <             # h A.*.8 5 , , 7 Y n.t.n.7.T ) F.S.~ m 6 t.L a 9 s ",
"U P z.v.z f %.8 6.C.P Y %.< + .             o ] .X+X| h p b 8 n t.1.j U L L R t.b > 7 u.r.N 9 c.",
": N E.S.#.4.2.z W ) # Y > .                 & O.6X&X&XXX| OXg.E v Z ;.^ b x.n 5.7 6 v ;.1.^ i V.",
"x.0.,.S #.s.#.v I W # q +                   ; wXeX8X1X<X*X*X X$.V V Z ^ : 0 m 5.z u E #.C T u N.",
"/._.5.n 1.s.S <.S.>.5 #                     = iXCXcXcX9X>X:X*X&X+X..h U r 0 b v v u Y :.k a 3 a.",
"r.T.>., f.).i.:.7.R m X                     = iXZXBXNXjX,X;X;X;X*X+X@.U a 2 U 1.U M 0.w.7./ 2 _ ",
"S 3.>.n ;.H.s.k 7.I 5 X                     = iXZXBXBXkX1X;X;X;X:X%Xj.U 4 u B.E.) # a w.s.>.< L ",
"L B 9.n.Y S r.S Y 7.> X                     = iXZXBXBXcXqX,X;X;X:X*X+Xg.r x D._.T # d S s.w.6 U ",
"# y B.K.^ 4 u Y <.n.5 X                     = iXBXBXBXcXqX1X:X;X;X:X*X| y.^ Y D.8.9 ` r.s.S.0./ ",
"+ y a.u.Q # p m ;.3.z X                     ; (.hXhXNXpX@X$X:X;X;X;X-X .9.>.e ;.v.y / n.S.i.T q.",
"# a S.N.L K K W j ;.e.X                     O - o.o.+.O.{.$X:X;X:X-X..d.S.t.r.;.^ P p e.<.9.2 ` ",
"W e 7.Z.%.e.Z.j.J $.{ &                       . . O O * [.$X:X;X;X Xj.y.Y.y.D.t.^ z.p E x _ s a ",
"T.n.l # $ 9 9 X. X&X.X[ o                         . . * {.<X:X;X-XXXA.D.9.y.P.x b B.0.I y s H 3 ",
"S.w.p       o }.=X:X<X6X@Xo.- .                 - +.+.uXjX5X#Xk.h.$.w.D j x P.0./ N.b.T H 9 t ( ",
"=.# X       o }.;X:X;X1XlXuXwXo.- - - - - - - - wXmXnXmXaXrX..*.t.5.j , e Y n.n.t.t.y.T G t t ' ",
"=.X         o |.;X;X:X3X0XvXFXnXbXbXbXbXbXbXbXbXFXGXHXaXV { z.>.N.9.Z v B ;.i.Z ;.T.K.N s G H y ",
"c @.#       o }.;X;X;X,X2X0XxXLXJXJXJXJXJXJXJXJXJXPX`.%., T J.t.>.Y T 6.Z 4 7.S D G._.Z M ( ' a ",
"2.Z.h 1 1 @ & |.;X;X;X;X>X>X2XxXSXSXSXSXSXSXSXSXSXdXA.-.Y t.Y 9.>.U u N 9.>.c c Y Y 7.Y ^ 6 , >.",
"D G.f z v h ..%X;X;X;X;X;X;X>X3X2X2X2X2X2X~.~.~.~.~.h.;.%.j 7.0.0.n 6 L ^ N I I Y B >.^ N I u u ",
"<.r.~ N i.$.XX-X;X;X;X;X;X;X;X;X;X;X;X;X~.~.~.~.~.~.h.Y k c n.5.I n , 4 r b _ 1 , b Z N Z 6.0.2 ",
"U.S 1.K.<.k.%X;X;X;X;X;X;X;X;X;X;X;X;X~.~.~.~.>X5XtXd.j g I 7.z 7 B.J.J.1 u 6 K i q.U b M / 6.x ",
"i.,.U %.w.g.-X:X;X;X;X;X;X;X;X;X~.~.~.~.~.;X;X,X0XDXaXW.A.R.U m 7 K.`.E.4 u 7.t.^ q.c.3 3 r 2 T ",
"u.b 0 E h.OX*X:X;X;X;X;X;X;X;X~.~.~.~.;X;X,X2X0XzXHXHXHXPXm.%.Z.%.n.K.B.I b.R.i.Y b M 6.2 P $ < ",
">.y T *.XX#X;X;X;X;X;X;X;X;X~.~.~.~.>X>X,X0XzXSXLXHXHXHXGXfXsX'.A.%.f %.g V e.w.u 1 B D.U K 9 M.",
"r B._.&.%X:X;X;X;X;X;X;X;X;X~.~.~.;X1X8XlXvXLXHXHXHXHXHXHXZXBXCXyX...... . ...k.h q v r.,.T y I.",
"n b r.@.} %X;X:X;X;X;X;X;X;X~.~.3X5X9XzXLXHXHXHXHXHXHXHXGXZXBXMX9X:X:X:X:X:X:X*X} J %.:.Z _ M F.",
"`.T.^ Y &.OX*X:X;X;X;X;X;X;X,X9XkXcXcXAXGXHXHXHXHXKXHXGXZXBXBXMX9X:X:X:X:X:X:X;X%XOX*.2.j i 3 ^.",
"H.U.m 4 H.l.#X:X:X:X;X;X;X;X1XkXBXVXVXZXHXHXHXHXaX'.gXZXBXBXBXMX9X:X;X;X;X;X;X:X:X#XJ @.@.V f &.",
"C G.Z ;.3.A.OX+X#X;X:X:X:X>X8XcXBXBXBXAXdXdXgXdXe.V A.fXVXBXBXMX9X:X:X:X:X:X:X;X=X}.o           ",
"Z Y 5.n.C 2.&.J  .-X;X;X=X6XjXMXVXVXBX`.:.-.s.s.i.:.l Z.fXVXVXMX7X=X;X;X;X;X;X=X}.] o           ",
"y M P.>.Y 7 I ;.&.k.} } } l.R.'.Q._.'.s.D , 6 A f.:.1.%.d.!._.!.l. . . . .} oX[.] .             ",
"+ a a.>.m > L Z s.<.c z 8 ,.K.'.b x f.-.t.b 6 ~ 3.r.t.E.L.m K T U g _.:.r.V @.! O               ",
"9 U S.7.p K p m Y 3.U.u.c Z i.S.0.x N.D.0.P.E./.u.z >.G.G.v 1 y b 7 i.U.9.7.D @.g               ",
"0 e Y.m.5.x.t.m.: 3.U.S.1.v D t.T < 8.T I 0.K.T.y.: x 3.3.Y 0 0 K 8.r.r.P.t.D.9.E g w w w 7 > 8 ",
"T.x U z J.Y.D.1.n t.R.S.Y z I R p 1 p 6 x.L t.<.n., m i.f.C L a K R F.N.7.J.F.z ) m.E E q / 0 z ",
"R.G.D.k 1.Y.<.E 8 I I >.m.8 n u 5.L _ _ I.b.,.Y v.U y B.n.~ I.`.T z D.~ B 6.Y.0 U J.5.T t 9 s ( ",
"U.;.S.S C ;.;.I I q W z.E.L.1.S 9.b a 0 / B.,.n.5.6.T z 0.b U 5.0.^ j 4 j Z K.t.y.9.7.P P % H q.",
"H.:.D S C r.c R I B.W.1 0.D.Z D U u a y 6.I.K.P.P.) B.n I R 0.5.N.Y e j A 7.n.C u.U.b.M t G t d ",
"V V , 4 >.S C Z t.t.L.n 7 u W x.^ b.m.6.0.I.R x 6 ^ ^ b 5 x.v.0.7.^ 5.6.B v n.j <.T.K.r P ( P y ",
"%.7., z B.Y r.7.Y S S.>.: 3 s 2 ) B.>.;.0.Y.v.^ 5 m.B.^ 7 T B.^ n 6.r N r 1 n 1.S G.F.~ ^ q.T q.",
"n.K.n 8.K.D.,.<.j 7 S.7.e d ( c.v.v.7.j k J.0.b.b ^ E.u 6 T B.n U 8.4 T y 3 r 0.~ 1.3.9.>.8.^ b ",
"i.v n 5.u.i.K.Y.N.n.S ^ U M V.B.^ B.L b z 5.B.D.~ Z t.u C.0.b.L.D.b.M y P Q < u ^ u.U.~ ^ U b u ",
"Q.v R >.,.Z Z.J.t.B./.,.u b ^ t.Z B.P.J.^ I.E.T.v Y ^ B 8.L V.6.y.B._ 3 < G W # b Y.H.R.c I 8.L "
};
