/* XPM */
static char *_41ae0995c6d44a7f0628abf70cd6b63SvlIV9HX8QqEC2ao[] = {
/* columns rows colors chars-per-pixel */
"48 48 236 2 ",
"   c #001D00",
".  c #022601",
"X  c #0A3903",
"o  c #0D3C0A",
"O  c #133708",
"+  c #163712",
"@  c #2D3A01",
"#  c #4F3E00",
"$  c #553D00",
"%  c #0C4402",
"&  c #0B4505",
"*  c #0D4901",
"=  c #144406",
"-  c #134C04",
";  c #1B4E05",
":  c #13450B",
">  c #1B4609",
",  c #154B0A",
"<  c #1C4C0B",
"1  c #0D5801",
"2  c #135204",
"3  c #195605",
"4  c #1B5B06",
"5  c #15510A",
"6  c #1C540C",
"7  c #15580A",
"8  c #1D5B0C",
"9  c #1D4513",
"0  c #1D4E13",
"q  c #1B4A15",
"w  c #165413",
"e  c #1E5312",
"r  c #1C5914",
"t  c #224505",
"y  c #374803",
"u  c #3A4C04",
"i  c #21550D",
"p  c #275B0A",
"a  c #225C0C",
"s  c #3A550B",
"d  c #214414",
"f  c #214C15",
"g  c #254E1C",
"h  c #225413",
"j  c #2A5413",
"k  c #235C12",
"l  c #2A5C14",
"z  c #24551A",
"x  c #2C551E",
"c  c #235D1C",
"v  c #2B5C1A",
"b  c #345D15",
"n  c #31571E",
"m  c #315C1A",
"M  c #1D650C",
"N  c #1E6612",
"B  c #25630C",
"V  c #2A660F",
"C  c #266A0B",
"Z  c #3B690F",
"A  c #30720E",
"S  c #246212",
"D  c #2B6414",
"F  c #266A13",
"G  c #2B6B14",
"H  c #26621A",
"J  c #2D651B",
"K  c #276E1B",
"L  c #2D6B1B",
"P  c #326317",
"I  c #326C16",
"U  c #32641B",
"Y  c #336B1C",
"T  c #3A6C1D",
"R  c #2E7417",
"E  c #2D721A",
"W  c #327315",
"Q  c #357A17",
"!  c #34731C",
"~  c #39751D",
"^  c #357B1D",
"/  c #3B7B1C",
"(  c #2C5C22",
")  c #2D5825",
"_  c #325624",
"`  c #365C29",
"'  c #276122",
"]  c #2C6422",
"[  c #2F6C24",
"{  c #346423",
"}  c #346C22",
"|  c #396C24",
" . c #3B622C",
".. c #33682B",
"X. c #3C6C2A",
"o. c #2E7622",
"O. c #347223",
"+. c #357727",
"@. c #3A7424",
"#. c #3D7B23",
"$. c #3D742A",
"%. c #3D7A2A",
"&. c #3D6834",
"*. c #3D7333",
"=. c #3D7B32",
"-. c #3E7C38",
";. c #4D4201",
":. c #464806",
">. c #4C4C03",
",. c #544301",
"<. c #554902",
"1. c #5A4C03",
"2. c #48560A",
"3. c #4B5D0D",
"4. c #58550B",
"5. c #54590B",
"6. c #415612",
"7. c #425912",
"8. c #575B13",
"9. c #49630C",
"0. c #486718",
"q. c #536413",
"w. c #596618",
"e. c #43761A",
"r. c #57711F",
"t. c #456F27",
"y. c #556A24",
"u. c #427523",
"i. c #427C25",
"p. c #4A7925",
"a. c #42762C",
"s. c #427C2B",
"d. c #497B2E",
"f. c #5A7726",
"g. c #446C32",
"h. c #4A7532",
"j. c #437D33",
"k. c #4A7837",
"l. c #4A7D34",
"z. c #557A3E",
"x. c #63742D",
"c. c #3C8217",
"v. c #3C841E",
"b. c #3C8324",
"n. c #3B8624",
"m. c #3C832A",
"M. c #408819",
"N. c #438425",
"B. c #448A24",
"V. c #498927",
"C. c #44832B",
"Z. c #49852C",
"A. c #46892C",
"S. c #4B8C2D",
"D. c #53872B",
"F. c #489429",
"G. c #4C932C",
"H. c #52942C",
"J. c #509D2C",
"K. c #468332",
"L. c #4C8434",
"P. c #458A34",
"I. c #4C8B33",
"U. c #4C843A",
"Y. c #4E8B3B",
"T. c #548335",
"R. c #538D35",
"E. c #598A37",
"W. c #52843C",
"Q. c #538D3B",
"!. c #4C9232",
"~. c #4E9638",
"^. c #539434",
"/. c #549A35",
"(. c #599A34",
"). c #55933A",
"_. c #59953D",
"`. c #559939",
"'. c #5B9A3D",
"]. c #628E36",
"[. c #62983E",
"{. c #58A337",
"}. c #5BA33A",
"|. c #63A23E",
" X c #4C8741",
".X c #538B42",
"XX c #578944",
"oX c #569242",
"OX c #5A9443",
"+X c #5C9B43",
"@X c #5D9C49",
"#X c #5E9554",
"$X c #629B44",
"%X c #63944B",
"&X c #689748",
"*X c #629C4C",
"=X c #6A9650",
"-X c #649A52",
";X c #5EA342",
":X c #64A344",
">X c #69A545",
",X c #65A944",
"<X c #6AA946",
"1X c #65A34B",
"2X c #69A44B",
"3X c #6CAC4B",
"4X c #70A54C",
"5X c #6CB14B",
"6X c #72B54F",
"7X c #6BA553",
"8X c #6CAA53",
"9X c #6AA857",
"0X c #70AD54",
"qX c #72A55D",
"wX c #72AC5A",
"eX c #6FB350",
"rX c #74B552",
"tX c #79BD54",
"yX c #76B35C",
"uX c #7AB45C",
"iX c #7ABA5C",
"pX c #7BB663",
"aX c #7CBA62",
"sX c #7DBC6D",
"dX c #7BC05A",
"fX c #82B85A",
"gX c #80BE60",
"hX c #83BC6A",
"jX c #82C25D",
"kX c #87C66A",
"lX c #8CC575",
"zX c #93D07A",
"xX c #A4DF7B",
"cX c #9FD882",
"vX c #A3DB83",
"bX c #ACE08E",
/* pixels */
"J % J @.%.I.i.#.E F R.Y.} D #.Z.I.~ _.B.G.A., e : e } @.u.2XuX_.I.8X! A._.I.C.3 5 J ~ A.H O.,Xn.",
", s.s.I %.~ G L H @.G Y k % L R.1XI.8 R b.^ @., = -XhX, C.xX|.a I >XkXpXoXj.5 H ..} Y i.6 #.(.C ",
"< 2XL.T Y Y J % : $.6 6 D i @.D P.Y.8 F G C.yXL.$.hXcX>X|.>X:XD.Z fXbXqXz : ) ( , v ).^.O.Z.(.!.",
"u.a.D D J oXL.| X.J - k pXkXOX* L A.P.S M I.$XR.Y uX:XjX4XY U T E.7Xg.&.+   9 `  .a.~.~.+XN.S.;X",
"h = h % l W.a.R.'.I.D O.lXzXI.2 L #.L.3 - B #.<XB W e.:XU X v P { 9 . + O . X n %X! n.~.K.L I.`.",
"g q v } Q.6 J i.:X2Xj.$.Y.+X).+X#.8 - , , - %.@XF % J h 0 : k.-X%Xh.< > j z.%XXXQ.G N %.j.: Y ).",
"XX9 Y ^.'.8 * J _.%.} } @.B A._.L 3 J c 5 & +.o.5 r c , [ $.OXlXvX7X*XOXa.X.=XL.4 n.M S oX X} @.",
"%Xl s.A.N.G 6 8 K.L .XJ s.N.~ G @.@.j.k k K m.F 5 O.j.] H wX0XZ.aXlXOX@.$.X j.=.N F.J.v.:XaXY % ",
"$Xj @.W v.#.k S K.H e = s.~ A G %.J : - F o.m.E & J s.6 k 9X<X4 $XsX*.: q X =.O.K v.{.c./ Z.Q..X",
"[.= l C B.#.k G G J 0 i @.V Q / i.e ( t b T.0.u f.y.u @ t p.R.Y lX-X= v o q C.;XS./ }.V.L K.kXhX",
"d.< a.!.!.Q.U @.A.@.< l @.V v.S.e.0.2.:.>.<.,.$ $ ,.,.# ;.w.q.s h.U.~ i.@.j.%.I.B.(.jX|.2 C.tX`.",
"| : C.}.!.v X j.aX*Xk ; @.).&Xf.5.<.$ $ $ $ $ $ $ $ $ $ $ $ $ ;.:.0.u.e.#.k O.I.C }.5XN.Y C.H.^ ",
"| 6 !.{./ m X $.kX2XD i e.f.8.,.$ $ $ $ $ $ $ $ $ $ $ $ $ $ $ $ $ ,.5.0.a 5 P.#.^ `./ #.+XR.I } ",
"a.Q.,X}.^.h.9 U.<X#.s.E.9.1.$ $ $ $ $ $ $ $ $ $ $ $ $ $ $ $ $ $ $ $ $ ;.y l +XS.#.S 2 s.8X*Xh o ",
"W.@.`.,X+Xa.z oXN.a p.q.<.$ $ $ $ $ $ $ $ $ $ $ $ $ $ $ $ $ $ $ $ $ $ $ ,.3.D.N.H c X +.'.[.f . ",
"k.< R.S.~.z ..%.N.D.q.,.$ $ $ $ $ $ $ $ $ $ $ $ $ $ $ $ $ $ $ $ $ $ $ $ $ 1.9.p =.' ] } $X:Xv o ",
"v x l.D +.c  Xs.E.f.<.$ $ $ $ $ $ $ $ $ $ $ $ $ $ $ $ $ $ $ $ $ $ $ $ $ $ $ ,.u +X1XoXY.7XP.a %.",
"> ` x h O.Y.*XJ s 8.$ $ $ $ $ $ $ $ $ $ $ $ $ $ $ $ $ $ $ $ $ $ $ $ $ $ $ $ $ >.p.3XkXoXS Y +XiX",
"g.g 9 ` $.OX$Xu.w.,.$ $ $ $ $ $ $ $ $ $ $ $ $ $ $ $ $ $ $ $ $ $ $ $ $ $ $ $ $ $ 9.'.'.G #.>X3X,X",
"h.d d ) $._.).D.5.$ $ $ $ $ $ $ $ $ $ $ $ $ $ $ $ $ $ $ $ $ $ $ $ $ $ $ $ $ $ $ 2.e.B.C ^.G.B.tX",
"j ` _ x Y 0XiX0.,.$ $ $ $ $ $ $ $ $ $ $ $ $ $ $ $ $ $ $ $ $ $ $ $ $ $ $ $ $ $ $ ;.Z B.A W C G.`.",
"v k.g.U ~ kX3X3.,.$ $ $ $ $ $ $ $ $ $ $ $ $ $ $ $ $ $ $ $ $ $ $ $ $ $ $ $ $ $ $ ,.9.#.K.* 2 #.F ",
"C.- 6 s.#.I.#.3.$ $ $ $ $ $ $ $ $ $ $ $ $ $ $ $ $ $ $ $ $ $ $ $ $ $ $ $ $ $ $ $ $ 7.@.N.@.S ;XF.",
"k k O.Y s.C.I 3.$ $ $ $ $ $ $ $ $ $ $ $ $ $ $ $ $ $ $ $ $ $ $ $ $ $ $ $ $ $ $ $ $ 6.G ~ J a ,XQ ",
"< R.L.Y Y ~ J y $ $ $ $ $ $ $ $ $ $ $ $ $ $ $ $ $ $ $ $ $ $ $ $ $ $ $ $ $ $ $ $ $ s @.).Y #.^.S.",
"D T.a.P J | W.s ,.$ $ $ $ $ $ $ $ $ $ $ $ $ $ $ $ $ $ $ $ $ $ $ $ $ $ $ $ $ $ $ ,.7.oXS.9XA./ rX",
"X.< i = = XXW.0.4.$ $ $ $ $ $ $ $ $ $ $ $ $ $ $ $ $ $ $ $ $ $ $ $ $ $ $ $ $ $ $ >.t.^ !.m.@.Z.'.",
": o X.< L.P J u.w.,.$ $ $ $ $ $ $ $ $ $ $ $ $ $ $ $ $ $ $ $ $ $ $ $ $ $ $ $ $ ,.x.i.N P.+.r J OX",
"#X9 { @.2XY , k p.4.$ $ $ $ $ $ $ $ $ $ $ $ $ $ $ $ $ $ $ $ $ $ $ $ $ $ $ $ $ 5.p b.1 E %.$.h s.",
"qXh $.A.`.G r - R.u ,.$ $ $ $ $ $ $ $ $ $ $ $ $ $ $ $ $ $ $ $ $ $ $ $ $ $ $ ,.f.8 !.F.^ ).hX*Xi ",
"4XP l.^ B.b.D - Y.b :.$ $ $ $ $ $ $ $ $ $ $ $ $ $ $ $ $ $ $ $ $ $ $ $ $ $ # 2.l.7 ^ J.M.A ^.J L ",
"fX; j B G.B.8 D ~ k b y ,.$ $ $ $ $ $ $ $ $ $ $ $ $ $ $ $ $ $ $ $ $ $ $ # @ P @XA.Q {.G.#.s.iXlX",
"4X< a.#.n.).a.D #.O.v t 3.;.$ $ $ $ $ $ $ $ $ $ $ $ $ $ $ $ $ $ $ $ $ <.u h.%.A.^.B.6X5X3 D rX3X",
"i.= } ;X'.s.0 { 1X1Xk 6 T 0.5.,.$ $ $ $ $ $ $ $ $ $ $ $ $ $ $ $ $ ,.>.9.i.L O.).W G.tXH.N.~ <XQ ",
"l.h ! /.S.U X J yX<Xd.% @.Z.E.r.5.<.$ $ $ $ $ $ $ $ $ $ $ $ $ # 8.y.t.#.! 2 L '.M ^.H.W +XK.#.! ",
"@.a.^.}./.W.x ] 0X`.#.Q.N.'.OXI ].0.2.>.<.,.,.$ $ $ $ ,.<.w.w.7.%XY @.O.6 5 +XS.N.@.a #.C.wXP z ",
"L.a.'.H./.L.h .XS./ Y ).N.kXr @.@.] D [.&Xf.r.q.3.u s r.0.].V J lX0XZ.- k D S.'.! [ & H C.[.v . ",
"%X< L.!.`.=.0 U.~ / I.R.rX`.8 J h , G ,X<XC.S '.gXaXqXY.2X$XD R.>X_.! D '.rXH./ H c ' c I.:X@.q ",
"z.= W.J m.w *.$.R.2X).0X`.^.U.] e 6 #.H.H.D & _.iX8XY.O.$.U.: $.).~ G A.,XtXH.& @X)..XK.@XyXa e ",
"j 9 g.0 O.+.-Xj.k 2X7XR.:X2X%.] v } W |.(.H - +XS.).} .X6 z , k %.! S #.,XeX).L A.<XyX1XS @.D iX",
"g.x 9 f $.K.7X@.e uXL.I i.<XS $.lXwXi.+X*Xk @.oX/ Z.OXqXl.l.} K.k L 3 @XC.O.O.4 #.S.yXA.V 1X3X5X",
"z._ +  .| R.R._.).8X! B 3 B s.Q.L.@.J R.S $.K.K.+XZ.1Xa.e v J R.^ A.9XsX X-.r O.O.N.B.W / :XN.rX",
"m d _ f U _.rX'.W +XI.~ B a #.*XK.Q.%.O.L @Xj.wX0X8XwXU.h v k @.^ ! 1XY., qX-X+.%.G ^.A / Q B.5X",
"j  .g.{ i 8XiXS.B +XG I L.L.s.I.R.oX.X5 J a.s.3 D %.wXQ.L.@XOXa.XX=.k 8 L 9X).).! W ^ C.3 2 R R ",
"W.$.W.i.i.>X<X/ Z.L : i Y i K.L s.*X$.8 s.*X@X5 s.oXyXR.N.C.*Xj.0 x > % N.:X/ #.I.`.#.*XS - P.m.",
"J a.L.C.R.H.V.i.Q.6 = h X.; L.@.L *X@.6 k pXs.J OXQ.7XV V I.oXoXXXg.m a I.:X4 B S.A.>X8XY.L 9X+X",
"k J #.C.i.rX'.s.k : &.{ h P OX1X7XOXQ.-Xk ).! i.1X*XK.S J } *Xs.*X%XU @.s.^ +X$XyX8X`.'.K.L G '.",
"[ U.O.G 3X3XyXL o *.( = = l.*X_.L.%X} U.Y s.#.G iXaX0Xa.7XqX*X! _.s.J l Z.hX*X).7X@X~ A.C.%.G dX"
};
